<?xml version="1.0" standalone="no"?>
<!DOCTYPE svg PUBLIC "-//W3C//DTD SVG 20010904//EN"
 "http://www.w3.org/TR/2001/REC-SVG-20010904/DTD/svg10.dtd">
<svg version="1.0" xmlns="http://www.w3.org/2000/svg"
 width="530.000000pt" height="530.000000pt" viewBox="0 0 530.000000 530.000000"
 preserveAspectRatio="xMidYMid meet">

<g transform="translate(0.000000,530.000000) scale(0.100000,-0.100000)"
fill="#000000" stroke="none">
<path d="M2054 5061 c-78 -36 -119 -118 -112 -228 9 -165 132 -256 245 -181
60 39 88 103 88 198 0 63 -4 83 -28 125 -48 86 -121 119 -193 86z m106 -119
c38 -39 48 -99 23 -149 -63 -130 -201 -24 -152 116 11 32 49 60 82 61 10 0 31
-13 47 -28z"/>
<path d="M1615 5058 c-3 -8 -4 -106 -3 -218 l3 -205 40 0 40 0 3 88 3 87 54 0
54 0 3 -87 3 -88 40 0 40 0 0 215 0 215 -40 0 -40 0 -3 -72 -3 -73 -54 0 -54
0 -3 73 -3 72 -38 3 c-24 2 -39 -1 -42 -10z"/>
<path d="M2335 5058 c-4 -11 -35 -381 -35 -416 0 -7 15 -12 39 -12 l39 0 7 78
c11 142 24 159 44 60 27 -136 29 -140 64 -136 32 3 32 4 57 105 14 56 28 104
31 108 4 3 9 -36 13 -87 9 -125 11 -128 51 -128 19 0 36 3 38 8 3 5 -28 418
-32 430 -1 1 -21 2 -46 2 -41 0 -45 -3 -51 -27 -3 -16 -14 -62 -24 -103 -10
-41 -21 -88 -24 -104 -4 -15 -10 -25 -14 -22 -4 4 -20 62 -37 129 l-30 122
-43 3 c-28 2 -44 -1 -47 -10z"/>
<path d="M2737 5063 c-9 -8 -9 -396 -1 -417 9 -23 180 -23 212 0 49 34 69 133
38 192 -11 22 -12 36 -3 69 14 55 -12 127 -53 148 -30 15 -180 22 -193 8z
m161 -100 c6 -10 6 -28 1 -40 -6 -18 -16 -23 -44 -23 -34 0 -35 1 -35 40 0 39
1 40 35 40 22 0 37 -6 43 -17z m2 -163 c23 -23 24 -33 10 -61 -8 -14 -21 -19
-50 -19 l-40 0 0 43 c0 24 3 47 7 50 13 14 54 6 73 -13z"/>
<path d="M3029 4925 c-1 -80 -1 -156 -1 -170 0 -14 0 -48 1 -76 l1 -50 38 3
37 3 5 70 c4 53 9 70 20 70 15 0 48 -56 69 -115 9 -26 15 -30 49 -30 21 0 41
3 45 6 3 3 -9 41 -27 83 l-32 77 23 36 c34 50 39 99 18 154 -25 66 -59 84
-162 84 l-83 0 -1 -145z m163 33 c12 -19 10 -62 -4 -76 -7 -7 -27 -12 -45 -12
l-33 0 0 56 0 57 37 -6 c20 -4 40 -12 45 -19z"/>
<path d="M3330 4850 l0 -220 120 0 120 0 0 50 0 50 -80 0 -80 0 0 40 0 40 61
0 60 0 -3 43 -3 42 -57 3 -58 3 0 34 0 34 78 3 77 3 0 45 0 45 -117 3 -118 3
0 -221z"/>
<path d="M180 4055 l0 -375 280 0 280 0 0 375 0 375 -280 0 -280 0 0 -375z
m114 -124 c3 -5 -1 -11 -9 -15 -10 -3 -15 -19 -15 -46 0 -22 -4 -40 -10 -40
-5 0 -10 18 -10 40 0 27 -5 43 -15 46 -23 9 -7 24 25 24 16 0 31 -4 34 -9z
m85 -52 c14 -46 8 -62 -13 -33 -14 18 -15 18 -33 1 -38 -33 -39 -18 -7 62 17
41 35 31 53 -30z m245 52 c3 -5 -4 -12 -17 -16 -19 -6 -19 -8 -4 -12 21 -6 23
-23 2 -23 -8 0 -15 -7 -15 -15 0 -8 6 -15 14 -15 8 0 18 -4 21 -10 4 -6 -7
-10 -24 -10 -30 0 -31 1 -31 48 0 27 3 52 7 55 9 10 41 9 47 -2z m74 -9 c2 -7
-3 -12 -12 -12 -22 0 -20 -9 6 -29 29 -24 18 -51 -22 -51 -16 0 -30 5 -30 10
0 6 10 10 22 10 l21 0 -21 23 c-27 28 -28 43 -4 56 20 12 34 10 40 -7z m-268
-32 c0 -28 4 -40 14 -40 8 0 18 -4 21 -10 4 -6 -7 -10 -24 -10 -30 0 -31 1
-31 50 0 28 5 50 10 50 6 0 10 -18 10 -40z m80 0 c0 -33 3 -40 20 -40 11 0 20
-4 20 -10 0 -5 -13 -10 -30 -10 -29 0 -30 1 -30 50 0 28 5 50 10 50 6 0 10
-18 10 -40z"/>
<path d="M340 3890 c0 -5 5 -10 11 -10 5 0 7 5 4 10 -3 6 -8 10 -11 10 -2 0
-4 -4 -4 -10z"/>
<path d="M790 4055 l0 -375 510 0 510 0 0 375 0 375 -510 0 -510 0 0 -375z
m554 261 c44 -18 66 -52 66 -101 0 -50 -22 -83 -67 -101 -71 -30 -153 24 -153
101 0 51 31 89 90 108 24 8 29 8 64 -7z m-213 -386 c27 -15 24 -48 -6 -62 -14
-6 -25 -17 -25 -25 0 -7 -4 -13 -10 -13 -11 0 -14 93 -3 103 9 10 21 9 44 -3z
m93 1 c3 -5 -4 -12 -17 -16 -19 -6 -19 -8 -4 -12 21 -6 23 -23 2 -23 -8 0 -15
-7 -15 -15 0 -8 6 -15 14 -15 8 0 18 -4 21 -10 4 -6 -8 -10 -29 -10 l-36 0 0
49 c0 30 5 51 13 54 20 9 45 8 51 -2z m84 -9 c2 -7 -6 -12 -17 -12 -17 0 -21
-6 -21 -30 0 -23 4 -30 20 -30 11 0 20 -4 20 -10 0 -14 -43 -13 -58 2 -20 20
-14 65 10 82 24 17 39 17 46 -2z m224 -18 c18 -40 -4 -74 -47 -74 -29 0 -37 5
-45 25 -26 68 62 115 92 49z m-172 11 c0 -8 7 -15 15 -15 8 0 15 7 15 15 0 8
7 15 15 15 11 0 15 -12 15 -50 0 -38 -4 -50 -15 -50 -9 0 -15 9 -15 25 0 16
-6 25 -15 25 -9 0 -15 -9 -15 -25 0 -16 -6 -25 -15 -25 -11 0 -15 12 -15 50 0
38 4 50 15 50 8 0 15 -7 15 -15z"/>
<path d="M1275 4260 c-18 -19 -17 -20 3 -20 19 0 22 -6 22 -45 0 -25 5 -45 10
-45 6 0 10 28 10 65 0 71 -11 82 -45 45z"/>
<path d="M1100 3900 c0 -5 5 -10 10 -10 6 0 10 5 10 10 0 6 -4 10 -10 10 -5 0
-10 -4 -10 -10z"/>
<path d="M1467 3895 c-9 -22 3 -46 22 -43 10 2 16 13 16 28 0 28 -29 40 -38
15z"/>
<path d="M1860 4055 l0 -375 510 0 510 0 0 375 0 375 -510 0 -510 0 0 -375z
m572 253 c24 -12 48 -60 48 -95 0 -76 -82 -129 -153 -99 -46 19 -67 51 -67
102 0 88 89 135 172 92z m-308 -374 c23 -9 20 -22 -6 -26 -31 -4 -40 -58 -9
-58 11 0 23 -4 26 -10 9 -14 -48 -13 -63 2 -20 20 -14 65 10 82 26 19 22 18
42 10z m260 -3 c3 -5 -1 -11 -9 -15 -10 -3 -15 -19 -15 -46 0 -29 -4 -40 -15
-40 -11 0 -15 12 -15 45 0 25 -5 45 -11 45 -5 0 -7 5 -4 10 8 12 62 13 69 1z
m182 -5 c16 -12 17 -18 7 -34 -9 -16 -9 -24 1 -38 12 -16 14 -14 26 22 25 77
47 78 69 3 14 -46 6 -64 -15 -35 -13 18 -15 18 -32 3 -26 -24 -57 -21 -75 6
l-16 22 0 -22 c-1 -14 -7 -23 -16 -23 -19 0 -22 96 -2 103 21 9 33 7 53 -7z
m-386 -46 c0 -27 -4 -50 -10 -50 -5 0 -10 23 -10 50 0 28 5 50 10 50 6 0 10
-22 10 -50z m74 23 l15 -28 1 28 c0 17 5 27 15 27 11 0 15 -12 15 -50 0 -43
-3 -50 -20 -50 -11 0 -26 12 -34 28 l-15 27 -1 -27 c0 -18 -5 -28 -15 -28 -11
0 -15 12 -15 50 0 43 3 50 20 50 11 0 26 -12 34 -27z m168 -10 c2 -27 8 -39
21 -41 14 -3 17 4 17 37 0 30 4 41 15 41 10 0 15 -10 15 -33 0 -47 -19 -69
-55 -65 -28 3 -30 6 -33 51 -4 55 15 65 20 10z"/>
<path d="M2337 4274 c-15 -15 -6 -24 17 -18 39 9 39 -12 2 -54 -20 -22 -33
-42 -29 -46 10 -10 81 -7 88 4 4 6 -5 10 -19 10 -31 0 -33 11 -6 35 13 12 20
29 18 44 -2 21 -9 27 -33 29 -17 2 -34 0 -38 -4z"/>
<path d="M2530 3900 c0 -5 5 -10 10 -10 6 0 10 5 10 10 0 6 -4 10 -10 10 -5 0
-10 -4 -10 -10z"/>
<path d="M2930 4055 l0 -375 508 2 507 3 3 373 2 372 -510 0 -510 0 0 -375z
m589 228 c29 -31 33 -40 28 -75 -10 -76 -84 -122 -150 -94 -96 39 -93 169 4
203 47 16 78 7 118 -34z m-279 -363 c0 -5 -10 -10 -22 -12 -35 -5 -37 -45 -3
-58 14 -5 28 -10 29 -10 2 0 8 17 14 39 23 74 47 73 72 -2 14 -44 5 -61 -16
-33 -13 18 -15 18 -32 3 -28 -25 -98 -23 -112 4 -16 29 -4 68 23 78 23 9 47 4
47 -9z m178 4 c24 -17 30 -62 10 -82 -7 -7 -27 -12 -45 -12 -33 0 -33 0 -33
49 0 61 23 77 68 45z m96 7 c3 -5 -2 -12 -11 -15 -14 -6 -14 -8 3 -21 17 -13
17 -14 2 -15 -10 0 -18 -5 -18 -11 0 -7 8 -18 18 -25 15 -12 14 -13 -15 -14
-33 0 -33 0 -33 49 0 47 7 58 37 60 6 1 14 -3 17 -8z m77 -2 c14 -7 19 -19 17
-37 -4 -38 15 -38 28 1 16 48 47 48 63 0 7 -21 15 -44 17 -50 8 -19 -17 -16
-32 5 -13 16 -15 16 -28 0 -16 -22 -64 -24 -72 -3 -7 17 -25 21 -21 4 1 -6 -4
-14 -10 -16 -9 -3 -13 9 -13 45 0 64 10 74 51 51z"/>
<path d="M3395 4271 c-4 -7 4 -11 19 -11 32 0 45 -20 17 -27 -27 -7 -27 -19 0
-26 29 -8 18 -32 -15 -32 -14 1 -25 -4 -23 -10 2 -5 19 -10 37 -10 37 0 57 22
45 51 -4 11 -8 30 -9 44 -1 20 -7 26 -33 28 -17 2 -34 -2 -38 -7z"/>
<path d="M3380 3880 c0 -20 5 -30 15 -30 10 0 15 10 15 30 0 20 -5 30 -15 30
-10 0 -15 -10 -15 -30z"/>
<path d="M3565 3900 c3 -5 8 -10 11 -10 2 0 4 5 4 10 0 6 -5 10 -11 10 -5 0
-7 -4 -4 -10z"/>
<path d="M3997 4416 c-3 -7 -5 -175 -4 -372 l2 -359 513 -3 512 -2 0 375 0
375 -509 0 c-425 0 -510 -2 -514 -14z m573 -116 c14 -9 31 -33 39 -53 12 -32
11 -40 -5 -74 -26 -52 -80 -79 -127 -64 -53 18 -82 55 -82 106 0 92 98 140
175 85z m-340 -300 c0 -5 -4 -10 -10 -10 -5 0 -10 -16 -10 -35 0 -24 -5 -35
-15 -35 -10 0 -15 11 -15 35 0 19 -5 35 -11 35 -5 0 -7 5 -4 10 3 6 19 10 36
10 16 0 29 -4 29 -10z m38 -40 c-5 -49 -28 -51 -28 -2 0 21 3 42 7 46 13 12
24 -12 21 -44z m71 41 c8 -5 12 -18 9 -29 -3 -10 -1 -27 4 -36 7 -12 5 -16 -6
-16 -8 0 -20 8 -25 18 -10 16 -10 16 -11 0 0 -10 -7 -18 -15 -18 -11 0 -15 11
-15 38 0 21 3 42 7 45 9 10 35 8 52 -2z m100 -5 c7 -8 11 -27 9 -43 -2 -22 -9
-29 -31 -31 -50 -6 -75 38 -41 72 19 20 48 20 63 2z m129 2 c7 -7 12 -21 12
-33 0 -29 -19 -45 -52 -45 -26 0 -28 3 -28 38 0 21 3 42 7 45 11 11 48 8 61
-5z m82 2 c0 -5 -7 -10 -15 -10 -8 0 -15 -4 -15 -10 0 -5 7 -10 15 -10 8 0 15
-4 15 -10 0 -5 -8 -10 -17 -10 -15 0 -14 -2 3 -15 18 -15 18 -15 -11 -13 -27
3 -30 7 -31 38 0 19 1 38 3 43 6 11 53 9 53 -3z m92 -63 c16 -5 23 2 36 34 8
21 21 39 28 39 6 0 19 -20 27 -45 17 -49 17 -51 -14 -32 -17 10 -23 10 -26 0
-3 -8 -23 -13 -49 -13 l-44 0 0 38 c0 50 14 64 18 19 2 -25 9 -36 24 -40z
m-634 -96 c10 -6 8 -10 -10 -16 -19 -6 -20 -8 -5 -12 20 -5 22 -19 5 -27 -10
-5 -10 -7 0 -12 21 -10 13 -24 -13 -24 -23 0 -25 4 -25 43 0 56 14 70 48 48z
m187 0 c3 -5 1 -12 -5 -16 -5 -3 -10 -22 -10 -41 0 -48 -24 -40 -28 9 -2 20
-8 37 -13 37 -6 0 -7 5 -4 10 8 13 52 13 60 1z m74 0 c9 -6 12 -18 8 -32 -3
-13 -1 -29 5 -36 18 -22 0 -28 -22 -8 -18 16 -20 16 -20 2 0 -10 -4 -17 -10
-17 -11 0 -14 83 -3 93 9 9 25 8 42 -2z m84 2 c4 -3 -1 -12 -11 -19 -16 -13
-16 -13 1 -14 21 0 23 -20 2 -20 -8 0 -15 -4 -15 -10 0 -5 7 -10 15 -10 8 0
15 -5 15 -11 0 -6 -12 -9 -27 -7 -25 3 -28 8 -31 42 -2 24 2 42 10 47 16 10
32 11 41 2z m82 -9 c20 -20 15 -36 -13 -49 -12 -5 -22 -15 -22 -22 0 -7 -4
-13 -10 -13 -11 0 -14 83 -3 93 11 12 31 8 48 -9z m125 10 c0 -4 -8 -13 -17
-20 -17 -13 -17 -13 0 -14 21 0 23 -20 2 -20 -8 0 -15 -4 -15 -10 0 -5 7 -10
15 -10 8 0 15 -4 15 -10 0 -5 -11 -10 -25 -10 -23 0 -25 4 -25 43 0 24 3 47 7
50 8 9 43 9 43 1z m69 -4 c13 -6 18 -21 18 -50 0 -42 -10 -53 -22 -22 -6 16
-7 16 -16 -1 -15 -26 -29 -11 -29 32 0 51 12 61 49 41z m105 -40 c3 0 3 6 0
14 -3 8 -1 17 5 21 7 4 11 -10 11 -39 0 -53 -10 -57 -39 -18 l-20 27 -1 -27
c0 -16 -4 -28 -10 -28 -11 0 -14 83 -3 94 4 4 18 -4 30 -18 12 -14 24 -26 27
-26z m102 15 c18 -44 19 -74 2 -57 -16 16 -45 15 -51 0 -2 -7 -8 -10 -12 -6
-11 11 26 98 42 98 2 0 11 -16 19 -35z m-761 4 c7 -20 20 -18 20 4 0 5 6 12
13 15 8 2 12 -10 12 -42 0 -54 -17 -61 -48 -20 -19 27 -19 27 -18 4 1 -13 -5
-25 -11 -27 -9 -3 -13 9 -13 41 0 39 3 46 19 46 11 0 23 -9 26 -21z m413 -21
c-2 -24 -7 -43 -13 -43 -5 0 -11 19 -13 43 -3 33 0 42 13 42 13 0 16 -9 13
-42z"/>
<path d="M4480 4238 c-37 -51 -37 -58 0 -58 20 0 30 -5 30 -15 0 -21 27 -19
32 3 2 9 2 38 0 65 -5 59 -22 61 -62 5z m30 -23 c0 -8 -7 -15 -15 -15 -9 0
-12 6 -9 15 4 8 10 15 15 15 5 0 9 -7 9 -15z"/>
<path d="M4397 3984 c-15 -15 -7 -45 11 -42 9 2 17 12 17 22 0 20 -16 31 -28
20z"/>
<path d="M4530 3965 c0 -25 14 -34 24 -16 8 12 -3 41 -15 41 -5 0 -9 -11 -9
-25z"/>
<path d="M4505 3810 c3 -5 8 -10 11 -10 2 0 4 5 4 10 0 6 -5 10 -11 10 -5 0
-7 -4 -4 -10z"/>
<path d="M370 3475 c0 -3 7 -17 16 -30 15 -23 15 -27 -6 -60 -25 -40 -9 -49
17 -9 l17 26 19 -26 c28 -38 42 -32 17 9 -20 32 -20 35 -4 60 22 33 10 45 -14
15 l-19 -24 -12 22 c-10 20 -31 31 -31 17z"/>
<path d="M492 3468 c-20 -20 -14 -37 19 -53 38 -20 36 -51 -4 -48 -15 1 -25
-2 -22 -8 7 -10 36 -12 59 -3 28 11 19 52 -15 69 -36 19 -33 38 7 46 l29 7
-30 1 c-17 0 -36 -4 -43 -11z"/>
<path d="M1070 3466 c0 -2 9 -6 20 -9 11 -3 18 -1 14 4 -5 9 -34 13 -34 5z"/>
<path d="M1265 3460 c-3 -6 1 -7 10 -4 8 4 23 0 33 -7 15 -13 16 -12 3 4 -15
19 -36 22 -46 7z"/>
<path d="M1340 3466 c0 -2 14 -6 30 -8 17 -3 30 -1 30 4 0 4 -13 8 -30 8 -16
0 -30 -2 -30 -4z"/>
<path d="M2040 3466 c0 -2 14 -6 30 -8 17 -3 30 -1 30 4 0 4 -13 8 -30 8 -16
0 -30 -2 -30 -4z"/>
<path d="M2330 3466 c0 -2 14 -6 30 -8 17 -3 30 -1 30 4 0 4 -13 8 -30 8 -16
0 -30 -2 -30 -4z"/>
<path d="M2411 3443 c1 -23 2 -24 6 -6 2 13 13 24 26 26 18 4 17 5 -5 6 -24 1
-28 -3 -27 -26z"/>
<path d="M3120 3466 c0 -2 9 -6 20 -9 11 -3 18 -1 14 4 -5 9 -34 13 -34 5z"/>
<path d="M3200 3466 c0 -2 9 -6 20 -9 11 -3 18 -1 14 4 -5 9 -34 13 -34 5z"/>
<path d="M3489 3453 c-13 -17 -13 -17 6 -3 11 8 22 16 24 17 2 2 0 3 -6 3 -6
0 -17 -8 -24 -17z"/>
<path d="M4322 3458 c-7 -7 -12 -16 -12 -22 0 -5 6 -1 14 9 8 11 19 16 30 12
10 -4 15 -3 11 3 -8 14 -28 13 -43 -2z"/>
<path d="M971 3444 c0 -11 3 -14 6 -6 3 7 2 16 -1 19 -3 4 -6 -2 -5 -13z"/>
<path d="M2148 3423 c5 -59 10 -63 11 -10 1 26 -3 47 -7 47 -4 0 -6 -17 -4
-37z"/>
<path d="M4418 3453 c7 -3 16 -2 19 1 4 3 -2 6 -13 5 -11 0 -14 -3 -6 -6z"/>
<path d="M1560 3445 c0 -10 29 -24 34 -17 3 6 -3 12 -14 15 -11 3 -20 4 -20 2z"/>
<path d="M2539 3433 c-13 -17 -13 -17 6 -3 11 8 22 16 24 17 2 2 0 3 -6 3 -6
0 -17 -8 -24 -17z"/>
<path d="M2613 3443 c-8 -3 -12 -20 -12 -41 l2 -37 6 35 c9 50 34 46 41 -5 l6
-40 5 43 c2 23 1 42 -2 42 -4 0 -13 2 -21 4 -7 3 -19 2 -25 -1z"/>
<path d="M2687 3440 c6 -8 13 -31 16 -50 l4 -35 1 36 c1 24 -4 41 -15 50 -16
12 -16 12 -6 -1z"/>
<path d="M3104 3422 c1 -22 4 -28 13 -20 7 5 17 7 23 3 5 -3 10 -1 10 4 0 6
-7 11 -15 11 -7 0 -18 7 -23 16 -7 13 -9 9 -8 -14z"/>
<path d="M4629 3437 c5 -7 11 -28 13 -47 l3 -35 5 42 c5 35 2 43 -13 47 -13 3
-15 1 -8 -7z"/>
<path d="M1530 3429 c0 -5 5 -7 10 -4 6 3 10 8 10 11 0 2 -4 4 -10 4 -5 0 -10
-5 -10 -11z"/>
<path d="M3715 3430 c3 -5 8 -10 11 -10 2 0 4 5 4 10 0 6 -5 10 -11 10 -5 0
-7 -4 -4 -10z"/>
<path d="M4590 3405 c0 -19 2 -35 4 -35 2 0 6 16 8 35 2 19 0 35 -4 35 -4 0
-8 -16 -8 -35z"/>
<path d="M4693 3405 c0 -22 2 -30 4 -17 2 12 2 30 0 40 -3 9 -5 -1 -4 -23z"/>
<path d="M1260 3425 c0 -2 14 -10 31 -19 23 -12 28 -12 20 -2 -11 12 -51 29
-51 21z"/>
<path d="M3470 3408 c0 -12 3 -17 8 -12 4 5 11 12 15 15 5 3 2 9 -7 12 -12 5
-16 0 -16 -15z"/>
<path d="M976 3404 c-5 -14 -4 -15 9 -4 12 10 18 10 30 0 13 -11 14 -10 9 4
-3 9 -14 16 -24 16 -10 0 -21 -7 -24 -16z"/>
<path d="M2457 3400 c4 -13 0 -26 -8 -32 -12 -8 -11 -9 1 -5 18 5 26 35 11 50
-7 7 -8 3 -4 -13z"/>
<path d="M3410 3413 c8 -3 21 -10 28 -16 9 -7 11 -6 6 7 -3 9 -16 16 -28 15
-14 0 -16 -2 -6 -6z"/>
<path d="M3525 3390 c0 -15 3 -26 8 -23 4 2 7 13 7 23 0 10 -3 21 -7 23 -5 3
-8 -8 -8 -23z"/>
<path d="M4319 3403 c-12 -16 -12 -17 2 -5 19 14 49 6 49 -13 0 -7 -6 -16 -12
-18 -10 -4 -10 -6 0 -6 19 -1 26 27 12 44 -16 20 -34 19 -51 -2z"/>
<path d="M1055 3370 c-3 -5 -1 -10 4 -10 6 0 11 5 11 10 0 6 -2 10 -4 10 -3 0
-8 -4 -11 -10z"/>
<path d="M430 2961 c-8 -17 -5 -24 25 -47 29 -22 33 -29 23 -41 -7 -9 -21 -12
-36 -8 -15 4 -21 2 -17 -5 9 -15 61 -12 75 5 16 20 6 43 -25 57 -35 16 -35 52
0 46 14 -3 25 -1 25 3 0 18 -59 9 -70 -10z"/>
<path d="M1065 2960 c-3 -6 1 -7 9 -4 18 7 21 14 7 14 -6 0 -13 -4 -16 -10z"/>
<path d="M1265 2960 c-3 -6 1 -7 9 -4 18 7 21 14 7 14 -6 0 -13 -4 -16 -10z"/>
<path d="M2040 2966 c0 -2 14 -6 30 -8 17 -3 30 -1 30 4 0 4 -13 8 -30 8 -16
0 -30 -2 -30 -4z"/>
<path d="M2333 2958 c-10 -17 -13 -87 -4 -92 4 -3 7 5 7 17 -1 15 5 22 17 21
24 -2 21 13 -4 19 -27 7 -19 32 9 31 12 0 19 3 16 8 -8 12 -32 10 -41 -4z"/>
<path d="M2438 2960 c12 -5 22 -15 22 -21 0 -7 3 -9 6 -6 10 10 -16 37 -35 36
-11 0 -9 -3 7 -9z"/>
<path d="M3190 2966 c0 -2 14 -6 30 -8 17 -3 30 -1 30 4 0 4 -13 8 -30 8 -16
0 -30 -2 -30 -4z"/>
<path d="M3490 2966 c0 -2 9 -6 20 -9 11 -3 18 -1 14 4 -5 9 -34 13 -34 5z"/>
<path d="M4267 2963 c-3 -5 5 -8 18 -8 13 0 21 3 18 8 -2 4 -10 7 -18 7 -8 0
-16 -3 -18 -7z"/>
<path d="M4466 2961 c-4 -5 3 -7 14 -4 23 6 26 13 6 13 -8 0 -17 -4 -20 -9z"/>
<path d="M971 2944 c0 -11 3 -14 6 -6 3 7 2 16 -1 19 -3 4 -6 -2 -5 -13z"/>
<path d="M1375 2950 c-3 -5 -1 -10 4 -10 6 0 11 5 11 10 0 6 -2 10 -4 10 -3 0
-8 -4 -11 -10z"/>
<path d="M4365 2950 c3 -5 8 -10 11 -10 2 0 4 5 4 10 0 6 -5 10 -11 10 -5 0
-7 -4 -4 -10z"/>
<path d="M1465 2929 c-4 -6 -5 -12 -2 -15 2 -3 7 2 10 11 7 17 1 20 -8 4z"/>
<path d="M1530 2925 c0 -8 2 -15 4 -15 2 0 6 7 10 15 3 8 1 15 -4 15 -6 0 -10
-7 -10 -15z"/>
<path d="M1580 2929 c0 -5 5 -7 10 -4 6 3 10 8 10 11 0 2 -4 4 -10 4 -5 0 -10
-5 -10 -11z"/>
<path d="M2120 2919 c0 -11 4 -18 10 -14 5 3 7 12 3 20 -7 21 -13 19 -13 -6z"/>
<path d="M2600 2905 c0 -19 2 -35 4 -35 2 0 6 16 8 35 2 19 0 35 -4 35 -4 0
-8 -16 -8 -35z"/>
<path d="M2648 2900 c2 -22 5 -40 7 -40 2 0 5 18 7 40 2 24 -1 40 -7 40 -6 0
-9 -16 -7 -40z"/>
<path d="M2700 2897 c4 -41 5 -41 8 -8 2 18 0 37 -5 42 -5 5 -6 -11 -3 -34z"/>
<path d="M3715 2930 c3 -5 8 -10 11 -10 2 0 4 5 4 10 0 6 -5 10 -11 10 -5 0
-7 -4 -4 -10z"/>
<path d="M4580 2925 c-6 -8 -10 -19 -8 -24 1 -6 8 1 15 14 13 28 11 31 -7 10z"/>
<path d="M4650 2925 c0 -8 2 -15 4 -15 2 0 6 7 10 15 3 8 1 15 -4 15 -6 0 -10
-7 -10 -15z"/>
<path d="M4698 2900 c2 -22 5 -40 7 -40 2 0 5 18 7 40 2 24 -1 40 -7 40 -6 0
-9 -16 -7 -40z"/>
<path d="M4750 2897 c4 -41 5 -41 8 -8 2 18 0 37 -5 42 -5 5 -6 -11 -3 -34z"/>
<path d="M1060 2916 c0 -6 9 -12 20 -12 11 0 20 3 20 7 0 4 -9 9 -20 12 -12 3
-20 0 -20 -7z"/>
<path d="M1292 2915 l-23 -12 25 -5 c20 -4 26 -1 26 13 0 11 -1 19 -2 18 -2
-1 -13 -7 -26 -14z"/>
<path d="M3441 2914 c0 -11 3 -14 6 -6 3 7 2 16 -1 19 -3 4 -6 -2 -5 -13z"/>
<path d="M990 2913 c8 -3 24 -13 34 -22 18 -15 18 -15 5 7 -8 12 -23 22 -34
21 -14 0 -16 -2 -5 -6z"/>
<path d="M3106 2904 c-5 -14 -4 -15 8 -5 8 7 20 10 26 6 5 -3 10 -1 10 4 0 17
-37 13 -44 -5z"/>
<path d="M3398 2908 c5 -5 16 -8 23 -6 8 3 3 7 -10 11 -17 4 -21 3 -13 -5z"/>
<path d="M3518 2902 c20 -22 25 -21 16 2 -3 9 -12 16 -20 16 -11 0 -10 -4 4
-18z"/>
<path d="M4289 2909 c17 -7 22 -15 18 -31 -4 -14 -3 -18 5 -10 16 16 -1 52
-25 51 -21 0 -21 -1 2 -10z"/>
<path d="M4505 2890 c0 -15 3 -26 8 -23 4 2 7 13 7 23 0 10 -3 21 -7 23 -5 3
-8 -8 -8 -23z"/>
<path d="M1380 2890 c0 -5 5 -10 10 -10 6 0 10 5 10 10 0 6 -4 10 -10 10 -5 0
-10 -4 -10 -10z"/>
<path d="M2376 2873 c-6 -14 -5 -15 5 -6 7 7 10 15 7 18 -3 3 -9 -2 -12 -12z"/>
<path d="M3429 2873 c-13 -16 -12 -17 4 -4 16 13 21 21 13 21 -2 0 -10 -8 -17
-17z"/>
<path d="M400 2385 c0 -72 17 -89 22 -22 l3 42 14 -42 c8 -24 19 -43 26 -43 6
0 18 19 26 43 l14 42 5 -38 c8 -60 25 -48 28 21 3 55 1 62 -16 62 -13 0 -23
-12 -32 -41 -8 -22 -17 -42 -21 -45 -4 -2 -15 16 -25 41 -25 68 -44 59 -44
-20z"/>
<path d="M935 2430 c-3 -6 1 -7 9 -4 18 7 21 14 7 14 -6 0 -13 -4 -16 -10z"/>
<path d="M1028 2433 c6 -2 18 -2 25 0 6 3 1 5 -13 5 -14 0 -19 -2 -12 -5z"/>
<path d="M2448 2422 c9 -10 19 -17 21 -16 6 5 -20 34 -30 34 -5 0 -1 -8 9 -18z"/>
<path d="M4438 2422 c9 -10 19 -17 21 -16 6 5 -20 34 -30 34 -5 0 -1 -8 9 -18z"/>
<path d="M2171 2414 c0 -11 3 -14 6 -6 3 7 2 16 -1 19 -3 4 -6 -2 -5 -13z"/>
<path d="M3180 2421 c0 -6 5 -13 10 -16 6 -3 10 1 10 9 0 9 -4 16 -10 16 -5 0
-10 -4 -10 -9z"/>
<path d="M3535 2420 c3 -5 8 -10 11 -10 2 0 4 5 4 10 0 6 -5 10 -11 10 -5 0
-7 -4 -4 -10z"/>
<path d="M4317 2423 c-4 -3 -7 -10 -7 -14 0 -12 49 -43 57 -36 3 4 -7 11 -22
17 -18 7 -25 15 -21 25 6 16 3 19 -7 8z"/>
<path d="M1570 2399 c0 -5 5 -7 10 -4 6 3 10 8 10 11 0 2 -4 4 -10 4 -5 0 -10
-5 -10 -11z"/>
<path d="M1620 2400 c0 -5 5 -10 10 -10 6 0 10 5 10 10 0 6 -4 10 -10 10 -5 0
-10 -4 -10 -10z"/>
<path d="M2377 2397 c-7 -19 -42 -23 -50 -7 -3 6 -4 5 -3 -2 2 -8 17 -13 37
-13 19 0 37 -4 41 -10 4 -5 8 0 8 13 0 13 -4 21 -9 18 -5 -4 -11 -1 -13 6 -3
8 -7 6 -11 -5z"/>
<path d="M2600 2370 c0 -22 2 -40 4 -40 2 0 6 18 8 40 2 22 0 40 -4 40 -5 0
-8 -18 -8 -40z"/>
<path d="M2648 2370 c2 -22 5 -40 7 -40 2 0 5 18 7 40 2 24 -1 40 -7 40 -6 0
-9 -16 -7 -40z"/>
<path d="M2700 2367 c4 -41 5 -41 8 -8 2 18 0 37 -5 42 -5 5 -6 -11 -3 -34z"/>
<path d="M3710 2399 c0 -5 5 -7 10 -4 6 3 10 8 10 11 0 2 -4 4 -10 4 -5 0 -10
-5 -10 -11z"/>
<path d="M3756 2395 c4 -8 7 -15 9 -15 2 0 5 7 9 15 3 9 0 15 -9 15 -9 0 -12
-6 -9 -15z"/>
<path d="M4590 2370 c0 -22 2 -40 4 -40 2 0 6 18 8 40 2 22 0 40 -4 40 -5 0
-8 -18 -8 -40z"/>
<path d="M4638 2370 c2 -22 5 -40 7 -40 2 0 5 18 7 40 2 24 -1 40 -7 40 -6 0
-9 -16 -7 -40z"/>
<path d="M4693 2370 c0 -25 2 -35 4 -22 2 12 2 32 0 45 -2 12 -4 2 -4 -23z"/>
<path d="M962 2385 l-23 -12 25 -5 c20 -4 26 -1 26 13 0 11 -1 19 -2 18 -2 -1
-13 -7 -26 -14z"/>
<path d="M2047 2384 c3 -8 9 -11 14 -8 6 3 18 0 27 -8 15 -11 16 -11 4 3 -17
22 -52 32 -45 13z"/>
<path d="M3492 2380 c0 -14 2 -19 5 -12 2 6 2 18 0 25 -3 6 -5 1 -5 -13z"/>
<path d="M1059 2378 c11 -15 11 -21 0 -35 -12 -17 -12 -17 6 0 19 17 19 17 0
35 -18 16 -18 16 -6 0z"/>
<path d="M3068 2378 c5 -5 16 -8 23 -6 8 3 3 7 -10 11 -17 4 -21 3 -13 -5z"/>
<path d="M3110 2379 c0 -5 5 -7 10 -4 6 3 10 8 10 11 0 2 -4 4 -10 4 -5 0 -10
-5 -10 -11z"/>
<path d="M3190 2354 c0 -8 5 -12 10 -9 6 4 8 11 5 16 -9 14 -15 11 -15 -7z"/>
<path d="M2362 2344 c-7 -8 -8 -14 -3 -14 10 0 25 19 20 25 -2 1 -10 -3 -17
-11z"/>
<path d="M2456 2343 c-6 -14 -5 -15 5 -6 7 7 10 15 7 18 -3 3 -9 -2 -12 -12z"/>
<path d="M3099 2343 c-13 -16 -12 -17 4 -4 16 13 21 21 13 21 -2 0 -10 -8 -17
-17z"/>
<path d="M4366 2343 c-6 -14 -5 -15 5 -6 7 7 10 15 7 18 -3 3 -9 -2 -12 -12z"/>
<path d="M440 1905 c0 -30 0 -58 0 -62 0 -5 15 -9 35 -11 20 -2 35 1 35 7 0 6
-11 11 -25 11 -24 0 -25 3 -25 55 0 30 -4 55 -10 55 -5 0 -10 -25 -10 -55z"/>
<path d="M905 1940 c-3 -5 -1 -10 4 -10 6 0 11 5 11 10 0 6 -2 10 -4 10 -3 0
-8 -4 -11 -10z"/>
<path d="M1275 1940 c-3 -5 -1 -10 4 -10 6 0 11 5 11 10 0 6 -2 10 -4 10 -3 0
-8 -4 -11 -10z"/>
<path d="M1355 1940 c-3 -5 1 -10 9 -10 9 0 16 5 16 10 0 6 -4 10 -9 10 -6 0
-13 -4 -16 -10z"/>
<path d="M1445 1940 c-3 -5 -1 -10 4 -10 6 0 11 5 11 10 0 6 -2 10 -4 10 -3 0
-8 -4 -11 -10z"/>
<path d="M2135 1940 c-3 -5 -2 -10 4 -10 5 0 12 -19 14 -42 3 -41 4 -41 5 10
2 48 -8 66 -23 42z"/>
<path d="M2325 1939 c-11 -16 -1 -19 13 -3 7 8 8 14 3 14 -5 0 -13 -5 -16 -11z"/>
<path d="M3040 1940 c0 -5 5 -10 11 -10 5 0 7 5 4 10 -3 6 -8 10 -11 10 -2 0
-4 -4 -4 -10z"/>
<path d="M3110 1946 c0 -2 11 -6 25 -8 13 -3 22 -1 19 3 -5 9 -44 13 -44 5z"/>
<path d="M3410 1940 c0 -5 5 -10 10 -10 6 0 10 5 10 10 0 6 -4 10 -10 10 -5 0
-10 -4 -10 -10z"/>
<path d="M3495 1940 c-3 -5 -1 -10 4 -10 6 0 11 5 11 10 0 6 -2 10 -4 10 -3 0
-8 -4 -11 -10z"/>
<path d="M4376 1943 c6 -4 14 -15 17 -23 5 -11 6 -9 4 4 -1 11 -9 21 -17 23
-10 3 -11 2 -4 -4z"/>
<path d="M4460 1939 c0 -5 5 -7 10 -4 6 3 10 8 10 11 0 2 -4 4 -10 4 -5 0 -10
-5 -10 -11z"/>
<path d="M1556 1921 c-4 -5 3 -7 14 -4 23 6 26 13 6 13 -8 0 -17 -4 -20 -9z"/>
<path d="M1620 1922 c0 -5 10 -8 22 -8 19 1 24 -6 29 -34 l6 -35 2 36 c1 25
-4 39 -15 43 -22 9 -44 7 -44 -2z"/>
<path d="M2087 1911 c-2 -10 -1 -25 4 -32 6 -10 9 -4 9 19 0 36 -5 42 -13 13z"/>
<path d="M2400 1916 c0 -8 4 -17 9 -20 5 -4 7 3 4 14 -6 23 -13 26 -13 6z"/>
<path d="M2457 1911 c-2 -10 -1 -25 4 -32 6 -10 9 -4 9 19 0 36 -5 42 -13 13z"/>
<path d="M2558 1923 c7 -3 16 -2 19 1 4 3 -2 6 -13 5 -11 0 -14 -3 -6 -6z"/>
<path d="M2604 1917 c-3 -9 -4 -28 -1 -44 3 -23 4 -22 6 10 1 29 5 37 20 37
16 0 21 -8 24 -40 l4 -40 -1 42 c-1 37 -4 43 -24 46 -13 2 -24 -3 -28 -11z"/>
<path d="M2682 1924 c11 -3 18 -19 21 -42 l4 -37 -1 40 c-1 32 -5 40 -21 42
-15 1 -15 0 -3 -3z"/>
<path d="M3708 1923 c7 -3 16 -2 19 1 4 3 -2 6 -13 5 -11 0 -14 -3 -6 -6z"/>
<path d="M3755 1919 c-4 -6 -4 -13 -1 -16 3 -4 6 -1 6 5 0 6 8 13 18 15 15 4
15 5 0 6 -9 0 -20 -4 -23 -10z"/>
<path d="M3813 1923 c-7 -2 -13 -17 -12 -31 1 -27 1 -27 8 -3 3 13 15 28 26
32 12 5 14 8 5 8 -8 -1 -21 -3 -27 -6z"/>
<path d="M4608 1923 c7 -3 16 -2 19 1 4 3 -2 6 -13 5 -11 0 -14 -3 -6 -6z"/>
<path d="M4654 1915 c-4 -9 -4 -19 0 -22 3 -4 6 1 6 10 0 10 8 17 19 17 15 0
21 -9 24 -37 l4 -38 -1 40 c-1 33 -5 41 -24 43 -13 2 -25 -3 -28 -13z"/>
<path d="M4732 1924 c11 -3 18 -19 21 -42 l4 -37 -1 40 c-1 32 -5 40 -21 42
-15 1 -15 0 -3 -3z"/>
<path d="M2030 1911 c0 -6 4 -13 10 -16 6 -3 7 1 4 9 -7 18 -14 21 -14 7z"/>
<path d="M2377 1905 c-4 -8 -2 -17 3 -20 6 -4 10 3 10 14 0 25 -6 27 -13 6z"/>
<path d="M3162 1895 c0 -16 2 -22 5 -12 2 9 2 23 0 30 -3 6 -5 -1 -5 -18z"/>
<path d="M4460 1910 c0 -6 7 -10 15 -10 8 0 15 2 15 4 0 2 -7 6 -15 10 -8 3
-15 1 -15 -4z"/>
<path d="M4575 1900 c-8 -25 11 -60 33 -59 14 0 14 2 2 6 -23 9 -31 25 -25 51
7 27 -1 29 -10 2z"/>
<path d="M1080 1900 c-13 -8 -12 -10 3 -10 9 0 17 5 17 10 0 12 -1 12 -20 0z"/>
<path d="M4267 1896 c-3 -7 4 -12 16 -12 31 1 36 -34 5 -35 -18 -1 -19 -2 -4
-6 24 -6 39 10 32 35 -8 23 -42 36 -49 18z"/>
<path d="M1722 1875 c0 -16 2 -22 5 -12 2 9 2 23 0 30 -3 6 -5 -1 -5 -18z"/>
<path d="M4504 1878 c1 -15 -7 -24 -24 -29 -25 -8 -25 -8 -1 -6 29 2 51 31 35
47 -8 8 -10 4 -10 -12z"/>
<path d="M1107 1866 c-3 -8 -16 -16 -29 -19 -21 -4 -21 -4 -2 -6 21 -1 52 24
42 35 -3 3 -8 -2 -11 -10z"/>
<path d="M3102 1871 c7 -25 36 -37 50 -23 11 11 9 12 -6 6 -13 -5 -24 -1 -34
12 -8 10 -12 13 -10 5z"/>
<path d="M974 1858 c2 -7 13 -13 26 -13 13 0 24 6 26 13 1 7 0 8 -3 2 -2 -5
-13 -10 -23 -10 -10 0 -21 5 -23 10 -3 6 -4 5 -3 -2z"/>
<path d="M2350 1854 c-17 -9 -20 -14 -9 -14 9 0 22 7 29 15 15 18 13 18 -20
-1z"/>
<path d="M2533 1860 c2 -8 14 -16 28 -17 19 -1 20 -1 4 4 -11 3 -24 10 -28 17
-6 7 -7 6 -4 -4z"/>
<path d="M3610 1862 c0 -6 -8 -13 -17 -15 -16 -4 -16 -5 -1 -6 18 -1 34 16 24
26 -3 4 -6 1 -6 -5z"/>
<path d="M1558 1848 c5 -5 16 -8 23 -6 8 3 3 7 -10 11 -17 4 -21 3 -13 -5z"/>
<path d="M2055 1850 c-13 -6 -15 -9 -5 -9 8 0 22 4 30 9 18 12 2 12 -25 0z"/>
<path d="M3184 1849 c-3 -5 9 -9 25 -9 17 0 31 2 31 4 0 8 -51 13 -56 5z"/>
<path d="M4340 1849 c0 -5 11 -9 25 -9 14 0 25 2 25 4 0 2 -11 6 -25 8 -14 3
-25 1 -25 -3z"/>
<path d="M3708 1843 c7 -3 16 -2 19 1 4 3 -2 6 -13 5 -11 0 -14 -3 -6 -6z"/>
<path d="M387 1440 c16 -28 16 -32 0 -59 -19 -33 -21 -41 -9 -41 5 0 15 12 23
26 l13 26 23 -28 c28 -36 39 -26 16 14 -17 30 -17 32 0 62 21 34 6 41 -17 8
l-16 -22 -16 22 c-23 33 -38 27 -17 -8z"/>
<path d="M490 1405 l0 -65 43 1 c38 1 39 2 12 8 -29 6 -30 9 -33 64 -4 78 -22
72 -22 -8z"/>
<path d="M1060 1456 c0 -2 11 -6 25 -8 13 -3 22 -1 19 3 -5 9 -44 13 -44 5z"/>
<path d="M1358 1453 c7 -3 16 -2 19 1 4 3 -2 6 -13 5 -11 0 -14 -3 -6 -6z"/>
<path d="M2046 1451 c-4 -5 3 -7 14 -4 23 6 26 13 6 13 -8 0 -17 -4 -20 -9z"/>
<path d="M2345 1451 c-3 -5 -1 -12 5 -16 5 -3 10 1 10 9 0 18 -6 21 -15 7z"/>
<path d="M2415 1450 c-4 -6 1 -7 11 -3 11 4 22 -1 30 -12 8 -10 14 -14 14 -9
0 26 -42 44 -55 24z"/>
<path d="M2510 1456 c0 -2 9 -6 20 -9 11 -3 18 -1 14 4 -5 9 -34 13 -34 5z"/>
<path d="M3125 1451 c-3 -5 -1 -12 5 -16 5 -3 10 1 10 9 0 18 -6 21 -15 7z"/>
<path d="M3205 1450 c-3 -5 -1 -10 4 -10 6 0 11 5 11 10 0 6 -2 10 -4 10 -3 0
-8 -4 -11 -10z"/>
<path d="M3495 1450 c-3 -5 -1 -10 4 -10 6 0 11 5 11 10 0 6 -2 10 -4 10 -3 0
-8 -4 -11 -10z"/>
<path d="M4330 1456 c0 -2 9 -6 20 -9 11 -3 18 -1 14 4 -5 9 -34 13 -34 5z"/>
<path d="M4428 1450 c26 -11 28 -25 6 -38 -15 -8 -15 -10 0 -15 18 -7 22 -33
6 -40 -6 -3 -5 -4 2 -3 15 3 19 75 5 94 -5 6 -17 12 -26 11 -11 0 -9 -3 7 -9z"/>
<path d="M987 1442 c6 -4 13 -28 16 -52 l4 -45 1 53 c2 44 -1 52 -15 52 -12 0
-14 -3 -6 -8z"/>
<path d="M1975 1440 c3 -5 8 -10 11 -10 2 0 4 5 4 10 0 6 -5 10 -11 10 -5 0
-7 -4 -4 -10z"/>
<path d="M3038 1443 c7 -3 16 -2 19 1 4 3 -2 6 -13 5 -11 0 -14 -3 -6 -6z"/>
<path d="M3400 1446 c0 -2 7 -6 15 -10 8 -3 15 -1 15 4 0 6 -7 10 -15 10 -8 0
-15 -2 -15 -4z"/>
<path d="M2091 1403 c-1 -23 -6 -44 -13 -46 -10 -4 -10 -6 0 -6 19 -1 35 49
23 74 -8 17 -10 13 -10 -22z"/>
<path d="M4310 1433 c0 -7 5 -15 10 -18 8 -5 7 -12 -2 -23 -11 -15 -11 -15 3
-4 9 7 23 10 31 7 9 -4 15 0 15 9 0 8 -6 12 -15 8 -8 -3 -21 3 -28 13 -8 10
-14 14 -14 8z"/>
<path d="M4629 1427 c5 -7 11 -28 13 -47 l3 -35 5 42 c5 35 2 43 -13 47 -13 3
-15 1 -8 -7z"/>
<path d="M1668 1390 c2 -22 6 -40 8 -40 2 0 4 18 4 40 0 22 -3 40 -8 40 -4 0
-6 -18 -4 -40z"/>
<path d="M2032 1405 c0 -16 2 -22 5 -12 2 9 2 23 0 30 -3 6 -5 -1 -5 -18z"/>
<path d="M2402 1405 c0 -16 2 -22 5 -12 2 9 2 23 0 30 -3 6 -5 -1 -5 -18z"/>
<path d="M2544 1413 c-10 -15 -15 -16 -33 -5 -13 7 -21 8 -21 2 0 -6 14 -13
30 -17 29 -5 30 -7 14 -24 -10 -11 -12 -19 -6 -19 16 0 34 37 30 61 -3 19 -4
19 -14 2z"/>
<path d="M2614 1415 c-8 -21 4 -65 17 -65 8 0 7 5 -1 15 -7 8 -10 26 -8 40 6
28 1 33 -8 10z"/>
<path d="M2680 1390 c0 -22 2 -40 4 -40 2 0 6 18 8 40 2 22 0 40 -4 40 -5 0
-8 -18 -8 -40z"/>
<path d="M2730 1390 c0 -22 2 -40 4 -40 2 0 6 18 8 40 2 22 0 40 -4 40 -5 0
-8 -18 -8 -40z"/>
<path d="M3750 1419 c0 -5 5 -7 10 -4 6 3 10 8 10 11 0 2 -4 4 -10 4 -5 0 -10
-5 -10 -11z"/>
<path d="M3800 1390 c0 -22 2 -40 4 -40 2 0 6 18 8 40 2 22 0 40 -4 40 -5 0
-8 -18 -8 -40z"/>
<path d="M4590 1390 c0 -22 2 -40 4 -40 2 0 6 18 8 40 2 22 0 40 -4 40 -5 0
-8 -18 -8 -40z"/>
<path d="M4693 1390 c0 -25 2 -35 4 -22 2 12 2 32 0 45 -2 12 -4 2 -4 -23z"/>
<path d="M1981 1404 c0 -11 3 -14 6 -6 3 7 2 16 -1 19 -3 4 -6 -2 -5 -13z"/>
<path d="M2182 1400 c0 -14 2 -19 5 -12 2 6 2 18 0 25 -3 6 -5 1 -5 -13z"/>
<path d="M3610 1409 c0 -7 -10 -9 -25 -7 -13 3 -22 1 -19 -3 9 -15 54 -10 54
6 0 8 -2 15 -5 15 -3 0 -5 -5 -5 -11z"/>
<path d="M2120 1371 c0 -10 19 -25 25 -20 1 2 -3 10 -11 17 -8 7 -14 8 -14 3z"/>
<path d="M2452 1364 c-7 -8 -8 -14 -3 -14 10 0 25 19 20 25 -2 1 -10 -3 -17
-11z"/>
<path d="M3596 1365 c-11 -8 -15 -15 -9 -15 6 0 16 7 23 15 16 19 11 19 -14 0z"/>
<path d="M4362 1364 c-7 -8 -8 -14 -3 -14 10 0 25 19 20 25 -2 1 -10 -3 -17
-11z"/>
<path d="M3687 1359 c7 -7 15 -10 18 -7 3 3 -2 9 -12 12 -14 6 -15 5 -6 -5z"/>
<path d="M4317 1359 c7 -7 15 -10 18 -7 3 3 -2 9 -12 12 -14 6 -15 5 -6 -5z"/>
<path d="M4527 1359 c7 -7 15 -10 18 -7 3 3 -2 9 -12 12 -14 6 -15 5 -6 -5z"/>
<path d="M1058 1353 c7 -3 16 -2 19 1 4 3 -2 6 -13 5 -11 0 -14 -3 -6 -6z"/>
<path d="M318 964 c-4 -4 2 -20 13 -35 l20 -29 -21 -31 c-29 -40 -16 -52 15
-14 l23 30 13 -27 c16 -36 52 -37 75 -2 l17 25 23 -28 c30 -37 42 -23 14 17
-20 29 -21 32 -6 55 24 37 18 54 -8 22 l-23 -28 -18 28 c-10 15 -20 22 -22 16
-3 -7 3 -23 12 -37 16 -23 16 -27 -1 -56 -10 -16 -21 -30 -24 -30 -3 0 -14 13
-23 30 -17 27 -17 32 -2 61 21 39 12 50 -11 14 l-17 -26 -21 26 c-12 15 -24
23 -28 19z"/>
<path d="M544 957 c-3 -8 -4 -39 -2 -68 l3 -54 38 -3 c21 -2 37 1 37 7 0 6
-11 11 -25 11 -24 0 -25 3 -25 54 0 53 -14 82 -26 53z"/>
<path d="M905 940 c-3 -5 -1 -10 4 -10 6 0 11 5 11 10 0 6 -2 10 -4 10 -3 0
-8 -4 -11 -10z"/>
<path d="M990 944 c8 -4 21 -14 28 -23 13 -14 13 -14 10 4 -2 13 -12 21 -28
22 -14 1 -18 0 -10 -3z"/>
<path d="M1060 946 c0 -2 11 -6 25 -8 13 -3 22 -1 19 3 -5 9 -44 13 -44 5z"/>
<path d="M1275 940 c-3 -5 -1 -10 4 -10 6 0 11 5 11 10 0 6 -2 10 -4 10 -3 0
-8 -4 -11 -10z"/>
<path d="M1350 946 c0 -2 11 -6 25 -8 13 -3 22 -1 19 3 -5 9 -44 13 -44 5z"/>
<path d="M1430 946 c0 -2 11 -6 25 -8 13 -3 22 -1 19 3 -5 9 -44 13 -44 5z"/>
<path d="M1970 940 c-13 -8 -12 -10 3 -10 9 0 17 5 17 10 0 12 -1 12 -20 0z"/>
<path d="M2055 940 c-3 -5 -1 -10 4 -10 6 0 11 5 11 10 0 6 -2 10 -4 10 -3 0
-8 -4 -11 -10z"/>
<path d="M2125 939 c-4 -6 -4 -13 -1 -16 3 -4 6 -1 6 6 0 9 9 12 25 9 13 -3
22 -1 19 3 -7 13 -42 11 -49 -2z"/>
<path d="M2340 940 c-13 -8 -12 -10 3 -10 9 0 17 5 17 10 0 12 -1 12 -20 0z"/>
<path d="M2425 943 c11 -3 26 -12 34 -21 13 -16 13 -16 7 1 -3 10 -6 21 -6 23
0 2 -12 3 -27 3 -21 -1 -23 -2 -8 -6z"/>
<path d="M2510 940 c-13 -8 -12 -10 3 -10 9 0 17 5 17 10 0 12 -1 12 -20 0z"/>
<path d="M3035 940 c-3 -5 1 -10 10 -10 9 0 13 5 10 10 -3 6 -8 10 -10 10 -2
0 -7 -4 -10 -10z"/>
<path d="M3129 943 c18 -4 22 -10 18 -30 -3 -16 -1 -21 5 -15 18 18 4 47 -22
49 -24 1 -24 1 -1 -4z"/>
<path d="M3196 941 c-3 -4 6 -6 19 -3 14 2 25 6 25 8 0 8 -39 4 -44 -5z"/>
<path d="M3405 940 c-3 -5 1 -10 10 -10 9 0 13 5 10 10 -3 6 -8 10 -10 10 -2
0 -7 -4 -10 -10z"/>
<path d="M3480 946 c0 -2 11 -6 25 -8 13 -3 22 -1 19 3 -5 9 -44 13 -44 5z"/>
<path d="M3567 943 c-3 -5 8 -8 23 -8 15 0 26 3 23 8 -2 4 -13 7 -23 7 -10 0
-21 -3 -23 -7z"/>
<path d="M4266 941 c-3 -4 6 -6 19 -3 14 2 25 6 25 8 0 8 -39 4 -44 -5z"/>
<path d="M4367 944 c12 -3 24 -13 27 -22 3 -12 4 -11 3 3 -2 14 -10 21 -27 22
-21 1 -21 1 -3 -3z"/>
<path d="M4460 933 c0 -12 3 -14 8 -7 4 7 16 14 27 17 15 4 14 5 -7 6 -21 1
-28 -4 -28 -16z"/>
<path d="M1556 921 c-4 -5 3 -7 14 -4 23 6 26 13 6 13 -8 0 -17 -4 -20 -9z"/>
<path d="M1620 922 c0 -5 10 -8 22 -8 19 1 24 -6 29 -34 l6 -35 2 36 c1 25 -4
39 -15 43 -22 9 -44 7 -44 -2z"/>
<path d="M2622 918 c-25 -25 -10 -78 22 -77 21 0 21 0 -1 9 -16 6 -23 18 -23
35 0 17 7 29 23 35 13 5 16 9 7 9 -9 1 -21 -4 -28 -11z"/>
<path d="M2686 922 c-3 -3 -5 -24 -5 -46 l2 -41 6 40 c4 27 12 41 24 43 14 3
17 -4 18 -40 l2 -43 6 40 c5 33 10 40 28 39 12 0 20 3 18 6 -5 8 -91 10 -99 2z"/>
<path d="M3708 923 c7 -3 16 -2 19 1 4 3 -2 6 -13 5 -11 0 -14 -3 -6 -6z"/>
<path d="M3755 919 c-11 -17 -2 -18 19 -3 17 12 17 14 4 14 -9 0 -20 -5 -23
-11z"/>
<path d="M3813 923 c-8 -3 -12 -20 -12 -41 l2 -37 6 34 c4 21 14 37 26 42 12
4 14 8 5 8 -8 -1 -21 -3 -27 -6z"/>
<path d="M4608 923 c7 -3 16 -2 19 1 4 3 -2 6 -13 5 -11 0 -14 -3 -6 -6z"/>
<path d="M4653 914 c-3 -8 -3 -18 1 -21 3 -4 6 1 6 11 0 11 6 16 18 14 11 -2
19 -16 23 -43 l5 -40 5 40 c3 27 9 41 21 43 13 2 18 -6 21 -35 l4 -38 -1 40
-1 40 -48 2 c-35 2 -50 -2 -54 -13z"/>
<path d="M1377 906 c-17 -13 -17 -14 1 -18 12 -4 18 1 18 13 0 11 0 19 -1 19
0 0 -8 -7 -18 -14z"/>
<path d="M3182 895 c0 -16 2 -22 5 -12 2 9 2 23 0 30 -3 6 -5 -1 -5 -18z"/>
<path d="M3566 906 c3 -9 10 -16 14 -16 5 0 16 -3 24 -6 12 -5 15 -2 10 10 -3
9 -10 13 -15 10 -6 -3 -17 0 -25 7 -12 10 -13 9 -8 -5z"/>
<path d="M4576 905 c-3 -9 -6 -22 -5 -28 0 -7 5 -1 10 12 5 13 8 26 5 28 -2 2
-6 -3 -10 -12z"/>
<path d="M2182 890 c0 -14 2 -19 5 -12 2 6 2 18 0 25 -3 6 -5 1 -5 -13z"/>
<path d="M4264 902 c3 -3 0 -12 -7 -21 -11 -14 -10 -14 5 -2 21 16 48 8 48
-15 0 -12 -7 -15 -29 -12 -17 2 -28 1 -25 -4 3 -4 16 -8 30 -8 28 0 42 24 25
44 -6 7 -9 15 -7 17 2 2 -7 5 -20 5 -14 1 -23 -1 -20 -4z"/>
<path d="M4480 902 c15 -5 26 -17 28 -29 3 -17 -3 -22 -25 -26 l-28 -4 28 -2
c51 -2 47 62 -4 66 -24 2 -24 2 1 -5z"/>
<path d="M992 877 c-30 -31 -28 -37 11 -36 31 2 31 2 3 6 l-28 5 23 24 c12 13
20 24 17 24 -2 0 -14 -10 -26 -23z"/>
<path d="M2425 870 l-29 -30 35 1 c25 1 28 3 11 6 l-24 5 23 24 c12 13 20 24
18 24 -3 0 -18 -13 -34 -30z"/>
<path d="M4364 878 l-19 -23 23 19 c21 18 27 26 19 26 -2 0 -12 -10 -23 -22z"/>
<path d="M3236 864 c-4 -10 -13 -14 -26 -11 -11 3 -18 1 -14 -4 9 -15 41 -10
48 7 4 9 5 19 2 21 -2 2 -6 -4 -10 -13z"/>
<path d="M2123 860 c5 -18 35 -26 50 -11 7 7 3 8 -13 4 -13 -4 -26 0 -32 8 -8
12 -9 11 -5 -1z"/>
<path d="M1365 850 l-30 -8 27 -1 c15 0 30 4 33 9 3 6 5 9 3 9 -2 -1 -16 -5
-33 -9z"/>
<path d="M1558 848 c5 -5 16 -8 23 -6 8 3 3 7 -10 11 -17 4 -21 3 -13 -5z"/>
<path d="M3567 848 c2 -5 13 -8 23 -8 10 0 21 3 23 8 3 4 -8 7 -23 7 -15 0
-26 -3 -23 -7z"/>
<path d="M3688 848 c6 -6 18 -8 28 -6 14 3 12 5 -9 10 -19 3 -25 2 -19 -4z"/>
<path d="M4588 848 c6 -6 18 -8 28 -6 14 3 12 5 -9 10 -19 3 -25 2 -19 -4z"/>
<path d="M1063 843 c9 -2 25 -2 35 0 9 3 1 5 -18 5 -19 0 -27 -2 -17 -5z"/>
<path d="M1433 843 c9 -2 25 -2 35 0 9 3 1 5 -18 5 -19 0 -27 -2 -17 -5z"/>
<path d="M3113 843 c9 -2 25 -2 35 0 9 3 1 5 -18 5 -19 0 -27 -2 -17 -5z"/>
<path d="M3483 843 c9 -2 25 -2 35 0 9 3 1 5 -18 5 -19 0 -27 -2 -17 -5z"/>
<path d="M4353 843 c9 -2 25 -2 35 0 9 3 1 5 -18 5 -19 0 -27 -2 -17 -5z"/>
<path d="M262 463 c2 -5 10 -20 17 -35 12 -24 11 -30 -8 -57 -16 -22 -18 -31
-9 -31 7 0 21 12 30 27 l16 27 13 -27 c17 -38 63 -38 82 0 l14 26 18 -26 c22
-35 57 -35 75 -2 l14 26 22 -28 c29 -36 43 -23 16 14 l-21 29 21 32 c23 36 8
44 -17 10 l-16 -23 -16 23 c-20 28 -57 28 -77 0 l-16 -22 -16 22 c-23 34 -36
26 -18 -12 15 -31 15 -35 -1 -60 -22 -33 -27 -33 -47 2 -16 27 -16 30 2 60 16
25 17 32 6 32 -8 0 -18 -9 -21 -20 -3 -11 -10 -20 -15 -20 -5 0 -14 9 -20 20
-10 18 -37 30 -28 13z m237 -34 c12 -22 12 -28 -4 -53 l-19 -28 -18 22 c-21
26 -23 43 -6 70 16 24 29 21 47 -11z"/>
<path d="M600 405 l0 -65 43 1 c38 1 39 2 12 8 -29 6 -30 9 -33 64 -4 78 -22
72 -22 -8z"/>
<path d="M1003 459 c21 -13 22 -28 1 -44 -16 -11 -15 -12 2 -17 15 -4 19 1 21
21 1 28 -13 51 -31 51 -6 0 -3 -5 7 -11z"/>
<path d="M1062 462 c-8 -6 -2 -9 18 -9 20 0 26 3 18 9 -7 4 -15 8 -18 8 -3 0
-11 -4 -18 -8z"/>
<path d="M2047 463 c-3 -5 6 -9 20 -10 19 -1 22 1 12 8 -17 11 -26 11 -32 2z"/>
<path d="M2130 459 c-12 -8 -10 -9 8 -4 17 5 24 1 31 -17 6 -14 10 -17 10 -7
1 14 -17 39 -28 39 -4 0 -13 -5 -21 -11z"/>
<path d="M2414 459 c-4 -7 0 -9 14 -5 14 5 24 1 31 -11 6 -10 11 -13 11 -7 0
26 -42 45 -56 23z"/>
<path d="M3115 460 c-3 -6 1 -7 9 -4 11 4 19 -2 25 -17 6 -14 10 -18 10 -8 2
28 -31 50 -44 29z"/>
<path d="M3201 460 c-9 -5 -4 -7 13 -7 29 0 32 2 13 10 -8 3 -20 2 -26 -3z"/>
<path d="M3487 463 c-3 -5 6 -9 20 -10 19 -1 22 1 12 8 -17 11 -26 11 -32 2z"/>
<path d="M3574 458 c-4 -7 -3 -8 5 -4 6 4 20 2 29 -6 15 -12 16 -11 3 5 -16
20 -27 22 -37 5z"/>
<path d="M4327 458 c-9 -5 -17 -14 -17 -19 0 -6 7 -4 15 5 9 8 22 13 30 10 8
-4 15 -4 15 -1 0 11 -27 14 -43 5z"/>
<path d="M4410 459 c-13 -9 -12 -10 2 -5 10 3 24 -2 33 -10 8 -9 15 -12 15 -7
0 10 -21 33 -29 33 -4 0 -13 -5 -21 -11z"/>
<path d="M896 452 c-3 -5 1 -9 9 -9 8 0 15 4 15 9 0 4 -4 8 -9 8 -6 0 -12 -4
-15 -8z"/>
<path d="M1266 452 c-3 -5 1 -9 9 -9 8 0 15 4 15 9 0 4 -4 8 -9 8 -6 0 -12 -4
-15 -8z"/>
<path d="M1375 450 c-3 -5 -1 -10 4 -10 6 0 11 5 11 10 0 6 -2 10 -4 10 -3 0
-8 -4 -11 -10z"/>
<path d="M1452 440 c-12 -19 -11 -20 8 -8 11 7 20 16 20 20 0 15 -15 8 -28
-12z"/>
<path d="M1965 450 c-3 -5 1 -10 9 -10 9 0 16 5 16 10 0 6 -4 10 -9 10 -6 0
-13 -4 -16 -10z"/>
<path d="M2335 450 c-3 -5 1 -10 9 -10 9 0 16 5 16 10 0 6 -4 10 -9 10 -6 0
-13 -4 -16 -10z"/>
<path d="M2525 450 c-3 -5 -1 -10 4 -10 6 0 11 -11 11 -25 0 -22 -4 -24 -35
-23 -20 1 -40 8 -44 16 -6 11 -12 12 -27 4 -18 -11 -17 -11 4 -12 32 0 25 -32
-8 -41 -22 -6 -23 -7 -4 -8 12 -1 27 6 34 14 15 18 80 20 80 3 0 -10 2 -10 8
-1 4 7 6 30 4 53 -4 39 -14 51 -27 30z"/>
<path d="M3040 450 c0 -5 5 -10 10 -10 6 0 10 5 10 10 0 6 -4 10 -10 10 -5 0
-10 -4 -10 -10z"/>
<path d="M3410 450 c0 -5 5 -10 10 -10 6 0 10 5 10 10 0 6 -4 10 -10 10 -5 0
-10 -4 -10 -10z"/>
<path d="M1556 431 c-4 -5 3 -7 14 -4 23 6 26 13 6 13 -8 0 -17 -4 -20 -9z"/>
<path d="M1620 431 c0 -4 11 -6 24 -4 22 5 25 1 29 -33 l4 -39 1 37 c2 29 6
37 25 41 12 2 -2 5 -30 6 -29 0 -53 -3 -53 -8z"/>
<path d="M2616 424 c-4 -9 -4 -19 -1 -22 3 -3 5 0 5 7 0 6 10 16 23 21 22 9
22 9 1 9 -12 1 -25 -6 -28 -15z"/>
<path d="M2681 398 l2 -43 6 35 c4 22 12 36 24 38 14 3 17 -4 18 -35 l2 -38 6
35 c5 28 10 35 29 34 12 0 22 3 22 8 0 4 -25 8 -55 8 l-55 0 1 -42z"/>
<path d="M3184 420 c1 -9 13 -16 29 -18 33 -4 31 -22 -4 -39 -17 -9 -19 -13
-7 -13 27 0 48 29 47 63 -1 18 -3 24 -6 15 -5 -21 -49 -25 -56 -5 -2 7 -3 6
-3 -3z"/>
<path d="M3686 431 c-3 -4 6 -6 19 -3 14 2 25 6 25 8 0 8 -39 4 -44 -5z"/>
<path d="M3750 431 c0 -4 11 -6 24 -4 22 5 25 1 29 -33 l4 -39 1 39 c2 35 4
38 27 34 13 -3 22 -1 19 3 -7 12 -104 12 -104 0z"/>
<path d="M4527 433 c-4 -3 -7 -11 -7 -17 0 -7 3 -7 8 0 4 7 16 14 27 17 19 5
19 5 -1 6 -11 0 -24 -2 -27 -6z"/>
<path d="M4592 398 l1 -43 4 38 c3 29 9 37 24 37 15 0 19 -8 20 -37 l2 -38 6
35 c9 50 38 53 44 6 l4 -36 -1 37 -1 38 -52 3 -53 3 2 -43z"/>
<path d="M1085 417 c-17 -13 -17 -14 1 -19 14 -4 20 0 20 13 0 11 -1 19 -1 19
-1 0 -9 -6 -20 -13z"/>
<path d="M3504 415 c-19 -14 -19 -14 2 -15 12 0 21 6 21 15 0 18 1 18 -23 0z"/>
<path d="M3567 417 c3 -4 -1 -16 -9 -25 -12 -15 -11 -16 4 -3 10 7 26 11 36 9
12 -3 18 1 18 11 0 11 -9 16 -27 16 -15 0 -25 -4 -22 -8z"/>
<path d="M4348 423 c-24 -6 -23 -19 3 -26 31 -8 17 -32 -17 -30 -28 1 -28 1
-6 -10 18 -8 26 -7 39 6 13 13 14 19 4 31 -7 8 -10 20 -6 26 3 5 5 9 3 9 -2
-1 -11 -3 -20 -6z"/>
<path d="M2142 387 c-30 -31 -28 -37 11 -36 31 2 31 2 3 6 l-28 5 23 24 c12
13 20 24 17 24 -2 0 -14 -10 -26 -23z"/>
<path d="M3122 387 c-30 -31 -28 -37 11 -36 31 2 31 2 3 6 l-28 5 23 24 c12
13 20 24 17 24 -2 0 -14 -10 -26 -23z"/>
<path d="M1178 393 c7 -3 16 -2 19 1 4 3 -2 6 -13 5 -11 0 -14 -3 -6 -6z"/>
<path d="M1330 388 c0 -5 37 -8 82 -8 45 0 78 3 75 6 -9 10 -157 11 -157 2z"/>
<path d="M2248 393 c7 -3 16 -2 19 1 4 3 -2 6 -13 5 -11 0 -14 -3 -6 -6z"/>
<path d="M4417 382 c-24 -27 -21 -32 16 -31 31 2 31 2 4 6 -28 4 -28 5 -11 24
9 10 15 19 12 19 -3 0 -12 -8 -21 -18z"/>
<path d="M2610 384 c0 -17 27 -37 42 -31 8 4 7 6 -4 6 -9 1 -22 9 -27 19 -6 9
-11 12 -11 6z"/>
<path d="M1014 371 c-5 -5 -18 -11 -29 -14 l-20 -5 20 -1 c22 -1 52 15 44 23
-3 3 -10 2 -15 -3z"/>
<path d="M1085 365 c-25 -12 -26 -14 -9 -15 12 0 27 7 34 15 15 18 14 18 -25
0z"/>
<path d="M3692 364 c9 -9 21 -15 27 -13 6 2 -2 10 -17 17 -25 11 -25 11 -10
-4z"/>
<path d="M4532 364 c9 -9 21 -15 27 -13 6 2 -2 10 -17 17 -25 11 -25 11 -10
-4z"/>
<path d="M1555 360 c3 -5 14 -10 23 -10 15 0 15 2 2 10 -20 13 -33 13 -25 0z"/>
<path d="M2034 358 c-3 -4 11 -8 30 -8 20 0 36 2 36 4 0 8 -61 12 -66 4z"/>
<path d="M3500 360 c-23 -7 -23 -8 -3 -9 12 -1 25 4 28 9 3 6 5 10 3 9 -2 -1
-14 -5 -28 -9z"/>
<path d="M3567 358 c2 -5 13 -8 23 -8 10 0 21 3 23 8 3 4 -8 7 -23 7 -15 0
-26 -3 -23 -7z"/>
</g>
</svg>
