<?xml version="1.0" standalone="no"?>
<!DOCTYPE svg PUBLIC "-//W3C//DTD SVG 20010904//EN"
 "http://www.w3.org/TR/2001/REC-SVG-20010904/DTD/svg10.dtd">
<svg version="1.0" xmlns="http://www.w3.org/2000/svg"
 width="530.000000pt" height="530.000000pt" viewBox="0 0 530.000000 530.000000"
 preserveAspectRatio="xMidYMid meet">

<g transform="translate(0.000000,530.000000) scale(0.100000,-0.100000)"
fill="#000000" stroke="none">
<path d="M1835 5038 c-2 -7 -8 -85 -15 -173 -6 -88 -13 -179 -16 -202 l-6 -43
40 0 c36 0 40 3 46 31 3 17 6 52 7 78 1 25 4 57 9 71 9 32 14 20 37 -90 l18
-85 36 -3 36 -3 25 113 25 113 7 -80 c13 -148 12 -145 56 -145 l39 0 -5 53
c-3 28 -11 124 -17 212 l-12 160 -43 3 c-50 4 -51 2 -83 -143 -11 -55 -24
-103 -28 -108 -4 -4 -18 41 -31 100 -34 156 -32 153 -80 153 -24 0 -42 -5 -45
-12z"/>
<path d="M2224 5035 c-3 -8 -4 -83 -2 -167 4 -176 17 -216 76 -244 46 -22 115
-14 147 16 41 38 49 83 50 250 l0 155 -40 0 -40 0 -5 -158 c-4 -142 -7 -160
-24 -173 -25 -18 -29 -18 -57 5 -23 18 -24 25 -27 175 l-3 156 -35 0 c-21 0
-37 -6 -40 -15z"/>
<path d="M2587 5044 c-4 -4 -7 -103 -7 -219 0 -220 -5 -247 -40 -225 -22 14
-26 13 -44 -15 -23 -35 -12 -64 30 -81 52 -22 99 1 125 60 18 41 19 64 17 263
l-3 218 -35 3 c-20 2 -39 0 -43 -4z"/>
<path d="M2720 4835 l0 -215 120 0 120 0 0 45 0 45 -80 0 -80 0 0 40 0 39 58
3 57 3 0 40 0 40 -57 3 -58 3 0 34 0 35 75 0 75 0 0 50 0 50 -115 0 -115 0 0
-215z"/>
<path d="M2990 4835 l0 -215 40 0 40 0 0 70 c0 62 2 70 19 70 15 0 26 -17 47
-70 l27 -70 44 0 c23 0 43 4 43 9 0 4 -13 40 -30 80 l-29 71 24 37 c25 36 29
52 27 111 -2 42 -34 95 -67 110 -14 7 -62 12 -105 12 l-80 0 0 -215z m152 108
c38 -34 15 -93 -37 -93 l-35 0 0 55 c0 53 1 55 27 55 14 0 35 -7 45 -17z"/>
<path d="M250 4020 l0 -370 265 0 265 0 0 370 0 370 -265 0 -265 0 0 -370z
m98 -131 c-12 -7 -18 -22 -18 -49 0 -22 -4 -40 -10 -40 -5 0 -10 16 -10 36 0
23 -6 42 -17 50 -16 12 -13 13 27 13 35 0 41 -2 28 -10z m86 -36 c19 -56 19
-53 1 -53 -8 0 -15 7 -15 15 0 8 -7 15 -15 15 -9 0 -18 -7 -21 -15 -10 -25
-27 -17 -20 10 22 88 46 98 70 28z m56 3 c0 -34 4 -46 18 -49 9 -3 2 -5 -15
-6 -33 -1 -33 -1 -33 49 0 38 4 50 15 50 11 0 15 -12 15 -44z m70 4 c0 -33 4
-42 23 -50 20 -8 19 -9 -10 -9 -33 -1 -33 -1 -33 49 0 28 5 50 10 50 6 0 10
-18 10 -40z m98 27 c-15 -12 -15 -14 0 -24 16 -11 16 -12 0 -12 -11 -1 -18 -9
-18 -20 0 -11 8 -22 18 -24 9 -3 2 -5 -15 -6 -33 -1 -33 -1 -33 49 0 50 0 50
33 50 28 -1 30 -2 15 -13z m82 3 c0 -5 -7 -10 -15 -10 -21 0 -19 -9 7 -29 29
-24 18 -51 -22 -51 -16 0 -30 5 -30 10 0 6 9 10 20 10 26 0 25 8 -2 29 -27 23
-18 51 17 51 14 0 25 -4 25 -10z"/>
<path d="M401 3854 c0 -11 3 -14 6 -6 3 7 2 16 -1 19 -3 4 -6 -2 -5 -13z"/>
<path d="M830 4020 l0 -370 485 0 485 0 0 370 0 370 -485 0 -485 0 0 -370z
m531 254 c84 -43 65 -183 -27 -200 -96 -18 -163 94 -103 170 36 46 80 56 130
30z m-202 -388 c15 -17 5 -44 -20 -51 -10 -4 -19 -13 -19 -21 0 -8 -4 -14 -10
-14 -5 0 -10 23 -10 50 0 46 2 50 24 50 13 0 29 -6 35 -14z m76 4 c-3 -5 -14
-10 -23 -11 -11 0 -9 -4 8 -11 l25 -10 -22 -9 c-13 -4 -23 -13 -23 -19 0 -6
10 -15 23 -20 20 -8 19 -9 -10 -9 -33 -1 -33 -1 -33 49 0 49 1 50 31 50 17 0
28 -4 24 -10z m90 0 c-3 -5 -15 -10 -26 -10 -14 0 -19 -7 -19 -30 0 -27 8 -35
33 -31 4 0 7 -3 7 -9 0 -5 -11 -10 -25 -10 -34 0 -53 39 -37 75 9 19 19 25 42
25 18 0 29 -4 25 -10z m45 -5 c0 -8 7 -15 15 -15 8 0 15 7 15 15 0 8 5 15 10
15 6 0 10 -22 10 -50 0 -27 -4 -50 -10 -50 -5 0 -10 11 -10 25 0 16 -6 25 -15
25 -9 0 -15 -9 -15 -25 0 -16 -6 -25 -15 -25 -11 0 -15 12 -15 50 0 38 4 50
15 50 8 0 15 -7 15 -15z m154 -1 c17 -45 -1 -84 -39 -84 -28 0 -45 19 -45 50
0 14 5 31 12 38 17 17 65 15 72 -4z"/>
<path d="M1292 4228 c-17 -17 -15 -31 3 -24 12 4 15 -4 15 -44 0 -28 5 -50 10
-50 6 0 10 28 10 65 0 66 -10 81 -38 53z"/>
<path d="M1120 3865 c0 -8 5 -15 10 -15 6 0 10 7 10 15 0 8 -4 15 -10 15 -5 0
-10 -7 -10 -15z"/>
<path d="M1467 3874 c-11 -12 -8 -41 6 -52 18 -16 39 1 35 29 -3 23 -27 37
-41 23z"/>
<path d="M1840 4020 l0 -370 485 0 485 0 0 370 0 370 -485 0 -485 0 0 -370z
m533 259 c39 -20 57 -51 57 -102 0 -54 -27 -91 -75 -103 -61 -15 -135 41 -135
103 0 78 87 136 153 102z m-263 -388 c0 -5 -10 -11 -22 -13 -17 -2 -24 -11
-26 -30 -3 -27 4 -33 36 -29 6 1 12 -3 12 -9 0 -14 -43 -13 -58 2 -7 7 -12 24
-12 38 0 14 5 31 12 38 14 14 58 16 58 3z m40 -41 c0 -27 -4 -50 -10 -50 -5 0
-10 23 -10 50 0 28 5 50 10 50 6 0 10 -22 10 -50z m70 18 l20 -33 0 33 c0 17
5 32 10 32 6 0 10 -22 10 -50 0 -60 -20 -67 -50 -17 l-20 32 0 -32 c0 -18 -4
-33 -10 -33 -5 0 -10 23 -10 50 0 60 20 67 50 18z m120 22 c0 -5 -4 -10 -10
-10 -5 0 -10 -18 -10 -40 0 -22 -4 -40 -10 -40 -5 0 -10 16 -10 36 0 23 -6 42
-17 50 -16 12 -14 13 20 14 20 0 37 -4 37 -10z m42 -32 c4 -52 21 -53 28 -2 7
53 30 57 30 6 0 -45 -18 -65 -52 -60 -20 3 -23 10 -26 51 -2 26 1 47 7 47 5 0
11 -19 13 -42z m144 27 c4 -8 1 -21 -5 -28 -8 -10 -7 -18 3 -32 11 -16 14 -13
26 29 17 63 41 62 62 -4 14 -42 14 -50 2 -50 -8 0 -14 7 -14 15 0 8 -7 15 -15
15 -9 0 -18 -7 -21 -15 -9 -23 -49 -18 -67 8 l-16 22 0 -22 c-2 -47 -21 -21
-21 27 0 49 1 50 30 50 18 0 33 -6 36 -15z"/>
<path d="M2308 4242 c-26 -5 -22 -24 4 -20 35 5 33 -25 -2 -66 -36 -40 -29
-50 32 -44 33 3 39 24 6 22 -23 -1 -22 1 3 35 12 16 19 36 17 46 -3 20 -34 33
-60 27z"/>
<path d="M2480 3870 c0 -5 5 -10 10 -10 6 0 10 5 10 10 0 6 -4 10 -10 10 -5 0
-10 -4 -10 -10z"/>
<path d="M2575 3861 c-3 -5 -1 -12 5 -16 5 -3 10 1 10 9 0 18 -6 21 -15 7z"/>
<path d="M2860 4020 l0 -370 485 0 485 0 0 370 0 370 -485 0 -485 0 0 -370z
m558 236 c16 -15 26 -39 29 -70 5 -42 3 -48 -30 -81 -46 -46 -92 -48 -139 -6
-29 26 -33 36 -33 79 0 52 19 85 60 103 32 14 87 2 113 -25z m-258 -361 c0 -3
-11 -10 -25 -15 -41 -16 -30 -60 16 -67 12 -2 20 11 29 43 16 57 38 55 58 -4
16 -48 10 -66 -13 -36 -14 18 -16 18 -29 2 -9 -12 -27 -18 -55 -18 -35 0 -43
4 -51 25 -10 26 -4 55 14 67 13 9 56 11 56 3z m178 -7 c7 -7 12 -24 12 -38 0
-34 -17 -50 -52 -50 -27 0 -28 2 -28 50 0 48 1 50 28 50 15 0 33 -5 40 -12z
m87 2 c-3 -5 -14 -10 -23 -10 -13 0 -13 -2 4 -15 17 -13 17 -14 2 -15 -26 0
-22 -29 5 -40 19 -8 17 -9 -15 -9 l-38 -1 0 50 0 50 36 0 c21 0 33 -4 29 -10z
m81 -25 c2 -70 12 -71 34 -2 16 50 35 47 54 -10 17 -49 13 -69 -8 -40 -16 21
-35 22 -42 2 -9 -23 -49 -18 -62 8 l-11 22 0 -22 c-1 -14 -7 -23 -16 -23 -11
0 -15 12 -15 51 l0 50 33 -3 c28 -3 32 -7 33 -33z"/>
<path d="M3300 4231 c0 -6 11 -11 25 -11 27 0 34 -17 10 -26 -21 -9 -18 -21 7
-27 17 -5 19 -9 9 -20 -6 -8 -21 -13 -31 -10 -27 7 -26 -14 0 -22 29 -9 74 21
64 43 -4 9 -7 31 -8 47 -1 27 -4 30 -38 33 -22 2 -38 -1 -38 -7z"/>
<path d="M3200 3855 c0 -8 5 -15 10 -15 6 0 10 7 10 15 0 8 -4 15 -10 15 -5 0
-10 -7 -10 -15z"/>
<path d="M3290 3850 c0 -20 5 -30 15 -30 10 0 15 10 15 30 0 20 -5 30 -15 30
-10 0 -15 -10 -15 -30z"/>
<path d="M3470 3869 c0 -5 5 -7 10 -4 6 3 10 8 10 11 0 2 -4 4 -10 4 -5 0 -10
-5 -10 -11z"/>
<path d="M3561 3854 c0 -11 3 -14 6 -6 3 7 2 16 -1 19 -3 4 -6 -2 -5 -13z"/>
<path d="M3870 4020 l0 -370 488 2 487 3 3 368 2 367 -490 0 -490 0 0 -370z
m546 251 c89 -54 47 -201 -56 -201 -41 0 -88 35 -99 74 -14 52 3 103 42 126
40 25 73 25 113 1z m-316 -301 c0 -5 -4 -10 -10 -10 -5 0 -10 -16 -10 -35 0
-19 -4 -35 -10 -35 -5 0 -10 14 -10 30 0 18 -6 33 -15 36 -8 4 -12 10 -9 15 7
12 64 11 64 -1z m30 -41 c0 -31 -4 -48 -10 -44 -17 11 -12 95 7 95 2 0 3 -23
3 -51z m69 42 c8 -5 12 -18 9 -29 -3 -10 -1 -27 4 -36 12 -21 0 -21 -24 1 -17
15 -18 15 -18 0 0 -10 -4 -17 -10 -17 -11 0 -14 73 -3 83 9 9 25 8 42 -2z m92
-1 c28 -16 26 -68 -3 -79 -33 -12 -58 4 -58 39 0 17 7 33 18 39 21 13 20 13
43 1z m120 0 c27 -15 26 -66 -2 -80 -34 -19 -49 -5 -49 45 0 48 11 56 51 35z
m89 0 c0 -5 -7 -10 -15 -10 -8 0 -15 -4 -15 -10 0 -5 7 -10 15 -10 8 0 15 -4
15 -10 0 -5 -7 -10 -15 -10 -8 0 -15 -4 -15 -10 0 -5 8 -10 17 -10 13 0 14 -3
6 -11 -22 -22 -43 -2 -43 39 0 21 3 42 7 45 10 11 43 8 43 -3z m70 -36 c0 -51
32 -47 54 8 14 36 18 40 30 28 16 -18 38 -80 27 -80 -4 0 -12 5 -19 12 -8 8
-15 8 -25 0 -7 -6 -29 -13 -48 -14 l-34 -3 -3 48 c-2 33 0 47 7 42 6 -3 11
-22 11 -41z m-592 -131 c-22 -5 -24 -23 -3 -23 8 0 15 -4 15 -10 0 -5 -7 -10
-15 -10 -8 0 -15 -4 -15 -10 0 -5 8 -10 17 -10 13 0 14 -3 6 -11 -22 -22 -43
-2 -43 41 0 37 2 40 28 39 16 -1 20 -3 10 -6z m74 -20 l17 -28 1 28 c0 15 5
27 10 27 13 0 13 -77 1 -85 -5 -3 -19 7 -30 21 -20 25 -21 26 -21 5 0 -11 -4
-21 -10 -21 -5 0 -10 18 -10 40 0 48 17 53 42 13z m111 20 c-7 -2 -13 -20 -13
-38 0 -19 -4 -37 -10 -40 -6 -4 -10 8 -10 29 0 23 -6 39 -17 45 -14 8 -10 10
22 10 22 0 34 -3 28 -6z m83 -4 c3 -6 1 -16 -4 -21 -8 -8 -8 -17 -1 -30 7 -14
6 -18 -5 -18 -8 0 -17 6 -20 13 -5 10 -7 10 -12 0 -12 -26 -24 -12 -24 27 0
38 2 40 29 40 17 0 33 -5 37 -11z m62 4 c-10 -2 -18 -7 -18 -10 0 -3 8 -12 18
-19 16 -13 16 -13 0 -14 -23 0 -24 -20 -1 -20 12 0 14 -3 6 -11 -6 -6 -20 -8
-32 -4 -16 5 -21 15 -21 39 0 40 6 46 39 45 17 -1 20 -3 9 -6z m89 -9 c5 -14
-35 -64 -52 -64 -3 0 -5 18 -5 40 0 36 2 40 25 40 14 0 28 -7 32 -16z m43 -23
c0 -22 -4 -43 -10 -46 -6 -4 -10 12 -10 39 0 25 5 46 10 46 6 0 10 -18 10 -39z
m54 24 c-17 -13 -17 -14 -1 -15 21 0 23 -20 2 -20 -8 0 -15 -4 -15 -10 0 -5 8
-10 17 -10 13 0 14 -3 6 -11 -22 -22 -43 -2 -43 41 0 37 2 40 27 40 26 0 26
-1 7 -15z m94 -13 c-1 -15 1 -33 6 -40 11 -19 -15 -14 -30 6 -13 16 -13 16
-14 0 0 -38 -20 -16 -20 22 0 38 2 40 30 40 27 0 30 -3 28 -28z m72 1 l13 -28
8 30 c6 26 7 24 8 -17 1 -51 -16 -58 -37 -15 l-11 22 0 -22 c-1 -14 -7 -23
-16 -23 -11 0 -15 11 -15 40 0 32 4 40 18 40 11 0 25 -12 32 -27z m116 -15
c13 -38 8 -48 -14 -26 -9 9 -16 7 -32 -7 -23 -21 -24 -17 -8 37 14 49 36 47
54 -4z"/>
<path d="M4336 4200 c-28 -43 -27 -60 5 -60 11 0 22 -7 25 -15 4 -8 9 -15 13
-15 11 0 29 50 20 56 -5 3 -9 21 -9 40 0 46 -21 44 -54 -6z m28 -32 c-9 -14
-23 2 -17 18 4 12 8 13 14 3 4 -7 5 -17 3 -21z"/>
<path d="M4175 3950 c-3 -5 -1 -10 4 -10 6 0 11 5 11 10 0 6 -2 10 -4 10 -3 0
-8 -4 -11 -10z"/>
<path d="M4254 3946 c-8 -22 3 -49 19 -43 6 2 12 14 12 27 0 27 -22 39 -31 16z"/>
<path d="M4387 3954 c-4 -4 -7 -18 -7 -31 0 -28 23 -27 28 1 4 20 -11 40 -21
30z"/>
<path d="M4205 3790 c-3 -5 -1 -10 4 -10 6 0 11 5 11 10 0 6 -2 10 -4 10 -3 0
-8 -4 -11 -10z"/>
<path d="M4360 3786 c0 -9 5 -16 10 -16 6 0 10 4 10 9 0 6 -4 13 -10 16 -5 3
-10 -1 -10 -9z"/>
<path d="M4740 3770 c0 -5 5 -10 10 -10 6 0 10 5 10 10 0 6 -4 10 -10 10 -5 0
-10 -4 -10 -10z"/>
<path d="M438 3429 c20 -32 20 -32 0 -65 -22 -38 -10 -47 16 -11 l16 22 16
-22 c26 -36 38 -27 15 10 -20 33 -20 33 -1 65 22 36 10 44 -15 10 l-16 -23
-16 23 c-24 34 -38 26 -15 -9z"/>
<path d="M542 3448 c-19 -19 -15 -31 19 -59 36 -29 32 -54 -7 -45 -14 4 -24 2
-24 -4 0 -7 15 -10 38 -8 31 3 37 7 40 28 2 19 -5 29 -28 42 -38 22 -38 38 0
38 17 0 30 5 30 10 0 14 -54 12 -68 -2z"/>
<path d="M991 3446 c11 -9 69 -15 64 -6 -3 6 -20 10 -37 10 -17 0 -29 -2 -27
-4z"/>
<path d="M1080 3439 c-12 -8 -10 -9 8 -4 26 8 44 -22 21 -36 -11 -7 -10 -11 5
-22 18 -13 18 -14 -5 -30 -13 -10 -19 -17 -13 -17 24 0 47 27 39 46 -4 10 -8
30 -9 44 -1 27 -22 36 -46 19z"/>
<path d="M1293 3443 c20 -3 27 -9 23 -19 -15 -37 -16 -47 -2 -24 24 39 20 50
-16 49 -32 -2 -32 -2 -5 -6z"/>
<path d="M1368 3439 c-10 -5 -18 -15 -18 -22 0 -8 3 -9 8 -1 4 6 16 16 27 22
11 6 16 11 10 11 -5 0 -18 -4 -27 -10z"/>
<path d="M2017 3443 c-4 -3 -7 -17 -7 -30 0 -18 5 -23 26 -23 21 0 25 -4 22
-22 -2 -17 -9 -23 -26 -22 -14 0 -19 -3 -13 -9 12 -12 48 0 55 20 8 20 -11 43
-35 43 -26 0 -24 29 4 40 21 8 21 9 1 9 -11 1 -24 -2 -27 -6z"/>
<path d="M2110 3443 c14 -3 28 -10 32 -17 5 -7 8 -5 8 7 0 13 -8 17 -32 16
-28 -2 -29 -2 -8 -6z"/>
<path d="M2297 3432 c-24 -27 -22 -79 4 -92 26 -14 51 4 47 34 -2 15 -12 22
-30 24 -16 2 -28 7 -28 12 0 5 12 16 28 24 16 9 21 15 11 16 -9 0 -23 -8 -32
-18z m39 -53 c3 -6 0 -17 -7 -25 -18 -17 -44 -2 -36 20 7 18 33 21 43 5z"/>
<path d="M2372 3438 c-25 -25 -10 -108 19 -108 17 0 39 34 39 60 0 26 -22 60
-39 60 -4 0 -12 -5 -19 -12z m48 -48 c0 -34 -21 -55 -38 -38 -28 28 -4 101 25
77 7 -7 13 -24 13 -39z"/>
<path d="M3036 3441 c-3 -5 5 -8 18 -7 13 0 22 4 19 9 -6 10 -31 9 -37 -2z"/>
<path d="M3114 3439 c-4 -8 -3 -9 5 -5 6 4 19 2 28 -6 14 -11 15 -11 11 2 -6
19 -34 25 -44 9z"/>
<path d="M3311 3441 c-9 -6 -12 -18 -8 -32 3 -13 2 -28 -4 -35 -7 -8 -5 -17 6
-28 31 -30 53 -11 51 44 -2 54 -16 69 -45 51z m34 -22 c0 -7 -8 -15 -17 -17
-18 -3 -25 18 -11 32 10 10 28 1 28 -15z m5 -53 c0 -8 -5 -18 -10 -21 -13 -8
-42 14 -34 26 9 15 44 10 44 -5z"/>
<path d="M3387 3443 c-4 -3 -7 -16 -7 -29 0 -16 7 -23 29 -26 17 -2 28 -1 25
4 -3 4 -14 8 -25 8 -26 0 -24 29 4 40 21 8 21 9 1 9 -11 1 -24 -2 -27 -6z"/>
<path d="M4143 3443 c31 -5 32 -8 11 -58 -8 -20 -13 -39 -11 -41 4 -4 14 17
44 94 4 8 -6 12 -33 11 -31 -2 -33 -3 -11 -6z"/>
<path d="M4223 3443 c17 -3 27 -11 27 -21 0 -14 2 -15 9 -2 14 21 4 30 -32 29
-30 -2 -31 -2 -4 -6z"/>
<path d="M4320 3433 c0 -12 3 -14 8 -7 4 7 16 14 27 17 15 4 14 5 -7 6 -21 1
-28 -4 -28 -16z"/>
<path d="M1467 3413 c-15 -14 -7 -63 12 -73 30 -15 38 -12 13 6 -29 20 -28 52
1 64 21 8 21 9 1 9 -11 1 -24 -2 -27 -6z"/>
<path d="M1532 3378 l1 -43 4 38 c3 28 9 37 23 37 14 0 20 -9 23 -37 l4 -38 1
38 c2 29 6 37 21 37 15 0 21 -8 24 -35 l4 -35 -1 37 -1 38 -52 3 -53 3 2 -43z"/>
<path d="M2486 3411 c-3 -4 6 -6 19 -3 14 2 25 6 25 8 0 8 -39 4 -44 -5z"/>
<path d="M2550 3411 c0 -5 9 -7 20 -4 17 5 20 0 20 -33 0 -42 6 -43 14 -1 2
14 7 31 11 37 4 6 -8 10 -29 10 -20 0 -36 -4 -36 -9z"/>
<path d="M2639 3378 c4 -36 5 -39 11 -18 7 27 2 60 -9 60 -4 0 -5 -19 -2 -42z"/>
<path d="M3497 3413 c-15 -14 -7 -63 12 -73 30 -15 38 -12 13 6 -24 17 -29 43
-10 62 7 7 8 12 2 12 -6 0 -14 -3 -17 -7z"/>
<path d="M3561 3378 c2 -43 2 -43 8 -8 9 51 38 53 44 3 l4 -38 1 38 c2 29 6
37 21 37 15 0 21 -8 24 -35 l4 -35 -1 37 -1 38 -52 3 -53 3 1 -43z"/>
<path d="M4430 3399 c-9 -16 -8 -26 5 -45 8 -13 21 -24 28 -24 7 1 5 6 -5 14
-27 20 -23 64 5 69 l22 4 -22 2 c-13 0 -27 -7 -33 -20z"/>
<path d="M4500 3403 c0 -12 3 -14 8 -6 4 6 26 10 50 9 23 -1 42 1 42 6 0 4
-22 8 -50 8 -41 0 -50 -3 -50 -17z"/>
<path d="M2117 3375 c-9 -19 -13 -35 -9 -35 8 0 34 61 29 67 -2 1 -11 -13 -20
-32z"/>
<path d="M3037 3396 c3 -4 -1 -12 -8 -17 -11 -6 -11 -13 -3 -26 14 -23 27 -26
49 -10 13 10 16 19 10 33 -4 10 -8 21 -7 24 0 3 -10 5 -23 5 -13 0 -21 -4 -18
-9z m40 -32 c5 -15 -20 -24 -37 -14 -7 4 -9 13 -5 19 8 14 37 11 42 -5z"/>
<path d="M3127 3373 c-24 -27 -26 -34 -14 -39 9 -3 24 -4 34 -1 14 4 13 5 -4
6 -29 1 -29 9 -1 38 12 13 20 24 17 26 -2 2 -17 -11 -32 -30z"/>
<path d="M4320 3399 c0 -5 9 -9 19 -9 11 0 23 -5 26 -10 10 -16 -16 -42 -34
-35 -12 5 -13 3 -5 -5 18 -18 56 6 52 33 -3 20 -58 46 -58 26z"/>
<path d="M1022 3375 c-17 -37 -14 -45 4 -12 9 16 14 31 11 33 -2 2 -9 -7 -15
-21z"/>
<path d="M1345 3391 c-4 -7 5 -9 25 -5 26 6 30 4 30 -14 0 -28 -17 -37 -38
-21 -16 12 -16 12 0 -6 14 -15 19 -16 33 -5 25 20 15 54 -17 58 -14 2 -29 -2
-33 -7z"/>
<path d="M1198 3373 c7 -3 16 -2 19 1 4 3 -2 6 -13 5 -11 0 -14 -3 -6 -6z"/>
<path d="M2208 3373 c7 -3 16 -2 19 1 4 3 -2 6 -13 5 -11 0 -14 -3 -6 -6z"/>
<path d="M3228 3373 c7 -3 16 -2 19 1 4 3 -2 6 -13 5 -11 0 -14 -3 -6 -6z"/>
<path d="M4226 3365 c-9 -26 -7 -32 5 -12 6 10 9 21 6 23 -2 3 -7 -2 -11 -11z"/>
<path d="M1286 3353 c-6 -14 -5 -15 5 -6 7 7 10 15 7 18 -3 3 -9 -2 -12 -12z"/>
<path d="M2492 3344 c10 -10 20 -16 22 -13 3 3 -5 11 -17 18 -21 13 -21 12 -5
-5z"/>
<path d="M3425 3350 c-4 -6 -16 -8 -27 -4 -14 4 -18 2 -14 -5 10 -16 31 -14
46 4 7 8 10 15 7 15 -3 0 -9 -5 -12 -10z"/>
<path d="M492 2958 c-21 -21 -13 -47 19 -63 36 -19 33 -40 -4 -40 -15 1 -27
-3 -27 -7 0 -13 55 -9 68 4 20 20 14 37 -18 53 -37 19 -40 45 -4 45 14 0 23 4
19 10 -8 14 -38 13 -53 -2z"/>
<path d="M1114 2918 c-6 -18 -14 -42 -18 -53 -7 -18 -6 -18 4 -2 19 30 41 87
33 87 -5 0 -13 -15 -19 -32z"/>
<path d="M1380 2946 c0 -2 7 -9 15 -16 13 -11 14 -10 9 4 -5 14 -24 23 -24 12z"/>
<path d="M2022 2938 c-13 -13 -16 -74 -4 -82 4 -2 6 11 4 30 -2 19 1 41 8 49
15 18 9 20 -8 3z"/>
<path d="M2104 2938 c-4 -6 -3 -8 4 -4 7 4 12 -10 15 -41 l3 -48 2 53 c2 49
-8 66 -24 40z"/>
<path d="M2292 2938 c-14 -14 -16 -74 -4 -82 5 -3 8 5 8 17 -1 16 5 22 19 22
14 0 20 -6 19 -23 0 -16 2 -20 10 -12 15 15 -7 45 -33 44 -23 -1 -28 15 -9 34
7 7 10 12 7 12 -3 0 -10 -5 -17 -12z"/>
<path d="M2372 2938 c-14 -14 -16 -74 -4 -82 5 -3 8 5 8 17 -1 16 5 22 19 22
14 0 20 -6 19 -23 0 -16 2 -20 10 -12 15 15 -7 45 -33 44 -24 -1 -25 1 -11 27
12 22 9 24 -8 7z"/>
<path d="M3030 2939 c0 -5 5 -7 10 -4 6 3 10 8 10 11 0 2 -4 4 -10 4 -5 0 -10
-5 -10 -11z"/>
<path d="M3115 2939 c-11 -16 -1 -19 13 -3 7 8 8 14 3 14 -5 0 -13 -5 -16 -11z"/>
<path d="M3301 2936 c-12 -15 -5 -46 11 -46 6 0 5 6 -2 15 -10 12 -10 18 0 30
7 8 10 15 7 15 -2 0 -10 -6 -16 -14z"/>
<path d="M3346 2912 c1 -21 -3 -44 -9 -52 -10 -13 -10 -13 6 -1 17 14 24 75 9
85 -4 2 -6 -12 -6 -32z"/>
<path d="M3408 2903 c7 -65 12 -67 12 -5 0 29 -4 52 -9 52 -5 0 -6 -21 -3 -47z"/>
<path d="M4268 2943 c0 -5 -2 -20 -2 -34 -2 -22 2 -25 23 -21 21 4 23 2 18
-17 -3 -11 -1 -21 3 -21 10 0 10 89 -1 95 -4 3 -5 -3 -2 -14 6 -22 -25 -38
-33 -16 -3 8 -3 19 1 25 3 5 4 10 1 10 -3 0 -7 -3 -8 -7z"/>
<path d="M1467 2923 c-10 -9 -9 -61 2 -67 4 -3 6 6 3 19 -2 14 1 32 8 40 12
15 0 22 -13 8z"/>
<path d="M1530 2890 c0 -22 2 -40 4 -40 2 0 6 18 8 40 2 22 0 40 -4 40 -5 0
-8 -18 -8 -40z"/>
<path d="M1580 2887 c4 -41 5 -41 8 -8 2 18 0 37 -5 42 -5 5 -6 -11 -3 -34z"/>
<path d="M2485 2919 c-4 -6 -5 -12 -2 -15 2 -3 7 2 10 11 7 17 1 20 -8 4z"/>
<path d="M2550 2915 c0 -8 2 -15 4 -15 2 0 6 7 10 15 3 8 1 15 -4 15 -6 0 -10
-7 -10 -15z"/>
<path d="M2589 2887 c2 -26 6 -35 12 -26 4 7 6 17 3 21 -3 4 -1 16 5 26 7 14
6 18 -7 18 -14 0 -16 -8 -13 -39z"/>
<path d="M2639 2888 c4 -37 5 -39 11 -18 6 20 -3 60 -13 60 -1 0 -1 -19 2 -42z"/>
<path d="M3502 2918 c-15 -15 -16 -55 -2 -63 7 -4 9 2 4 19 -4 16 -1 32 6 41
15 18 9 20 -8 3z"/>
<path d="M3561 2888 c2 -35 3 -37 6 -13 3 17 9 36 15 43 8 9 6 12 -6 12 -12 0
-16 -9 -15 -42z"/>
<path d="M3610 2885 c4 -36 5 -37 8 -10 2 17 8 35 12 40 6 7 2 11 -8 11 -14 0
-16 -7 -12 -41z"/>
<path d="M3660 2887 c4 -41 5 -41 8 -8 2 18 0 37 -5 42 -5 5 -6 -11 -3 -34z"/>
<path d="M4382 2918 c-15 -15 -16 -55 -2 -63 7 -4 9 2 4 19 -4 16 -1 32 6 41
15 18 9 20 -8 3z"/>
<path d="M4441 2888 c2 -35 3 -37 6 -13 3 17 9 36 15 43 8 9 6 12 -6 12 -12 0
-16 -9 -15 -42z"/>
<path d="M4490 2885 c4 -36 5 -37 8 -10 2 17 8 35 12 40 6 7 2 11 -8 11 -14 0
-16 -7 -12 -41z"/>
<path d="M4540 2887 c4 -41 5 -41 8 -8 2 18 0 37 -5 42 -5 5 -6 -11 -3 -34z"/>
<path d="M1274 2912 c4 -7 2 -20 -5 -28 -9 -10 -9 -18 -2 -25 8 -8 11 -6 10 7
-1 13 6 20 22 22 20 3 23 0 18 -19 -4 -15 -3 -19 5 -11 13 13 0 55 -17 49 -7
-3 -18 0 -25 6 -10 9 -11 9 -6 -1z"/>
<path d="M3033 2909 c3 -9 0 -22 -6 -28 -8 -8 -8 -14 0 -22 8 -8 11 -6 10 7
-1 13 5 19 18 19 13 0 19 -6 18 -19 -1 -13 2 -15 10 -7 7 7 7 14 -1 24 -7 8
-8 18 -4 22 4 5 0 6 -9 2 -9 -3 -22 0 -29 6 -10 9 -12 8 -7 -4z"/>
<path d="M4207 2885 c-9 -19 -15 -35 -12 -35 7 0 37 61 33 66 -3 2 -12 -12
-21 -31z"/>
<path d="M1026 2895 c-9 -26 -7 -32 5 -12 6 10 9 21 6 23 -2 3 -7 -2 -11 -11z"/>
<path d="M1632 2880 c0 -19 2 -27 5 -17 2 9 2 25 0 35 -3 9 -5 1 -5 -18z"/>
<path d="M2043 2903 c14 -4 18 -12 14 -29 -5 -27 8 -33 17 -8 8 20 -11 44 -33
43 -13 -1 -12 -2 2 -6z"/>
<path d="M3100 2894 c0 -14 3 -15 12 -6 7 7 21 12 31 12 15 0 18 -5 14 -26 -3
-16 -1 -22 5 -16 20 20 4 47 -30 50 -25 3 -32 -1 -32 -14z"/>
<path d="M3228 2883 c7 -3 16 -2 19 1 4 3 -2 6 -13 5 -11 0 -14 -3 -6 -6z"/>
<path d="M457 2443 c-11 -10 -8 -123 3 -123 6 0 10 16 10 36 0 41 15 37 25 -6
9 -43 31 -37 48 13 l15 42 1 -42 c2 -71 21 -49 21 23 0 76 -16 83 -40 16 -22
-59 -26 -59 -45 -3 -16 49 -24 59 -38 44z"/>
<path d="M1116 2415 c4 -8 1 -21 -5 -29 -9 -10 -8 -15 4 -19 9 -4 12 -13 8
-23 -4 -12 -3 -15 6 -10 7 5 9 15 5 25 -4 9 -6 26 -6 38 1 12 -3 25 -8 28 -6
3 -7 -1 -4 -10z"/>
<path d="M1316 2417 c3 -10 9 -15 12 -12 3 3 0 11 -7 18 -10 9 -11 8 -5 -6z"/>
<path d="M1358 2423 c-8 -40 -2 -59 17 -59 11 1 20 -5 20 -14 0 -9 -9 -15 -23
-14 -14 0 -19 -3 -13 -9 14 -14 51 2 51 22 0 18 -15 36 -35 43 -5 1 -10 11 -9
21 1 17 -5 24 -8 10z"/>
<path d="M1397 2409 c4 -13 8 -18 11 -10 2 7 -1 18 -6 23 -8 8 -9 4 -5 -13z"/>
<path d="M2022 2418 c-26 -26 -9 -99 23 -98 5 0 2 5 -7 11 -21 12 -24 69 -6
87 7 7 10 12 7 12 -3 0 -10 -5 -17 -12z"/>
<path d="M2127 2383 c-9 -25 -16 -48 -14 -50 2 -2 12 17 22 42 9 26 15 48 13
50 -2 2 -12 -17 -21 -42z"/>
<path d="M2321 2393 c-7 -21 -15 -45 -17 -53 -8 -25 16 17 32 55 8 19 10 35 6
35 -5 0 -14 -17 -21 -37z"/>
<path d="M2407 2407 c3 -15 -4 -30 -21 -46 -34 -32 -33 -41 7 -40 23 1 26 3
10 6 -28 5 -29 15 -3 38 21 19 27 50 11 59 -4 3 -6 -5 -4 -17z"/>
<path d="M3145 2400 c0 -15 3 -26 8 -23 4 2 7 13 7 23 0 10 -3 21 -7 23 -5 3
-8 -8 -8 -23z"/>
<path d="M3301 2416 c-12 -15 -5 -46 11 -46 6 0 5 6 -2 15 -10 12 -10 18 0 30
7 8 10 15 7 15 -2 0 -10 -6 -16 -14z"/>
<path d="M3431 2423 c-1 -6 -4 -20 -7 -30 -5 -17 -5 -17 6 0 6 10 9 23 6 30
-3 9 -5 9 -5 0z"/>
<path d="M4161 2393 c-7 -21 -15 -45 -17 -53 -8 -25 16 17 32 55 8 19 10 35 6
35 -5 0 -14 -17 -21 -37z"/>
<path d="M999 2398 c7 -10 10 -18 5 -19 -5 -1 2 -4 15 -8 30 -8 39 -29 15 -38
-11 -4 -22 1 -32 13 -8 10 -12 13 -10 5 8 -28 36 -37 54 -19 14 14 15 20 5 32
-7 8 -9 21 -5 28 5 10 4 10 -6 1 -11 -10 -18 -9 -34 5 -20 16 -20 16 -7 0z"/>
<path d="M1472 2398 c-26 -26 -7 -79 28 -77 9 0 6 4 -7 9 -16 6 -23 18 -23 35
0 17 7 29 23 35 13 5 16 9 7 9 -9 1 -21 -4 -28 -11z"/>
<path d="M1531 2368 c2 -43 2 -43 8 -8 8 48 38 54 44 8 l4 -33 -1 35 c-1 30
-5 35 -28 38 -27 3 -28 2 -27 -40z"/>
<path d="M1608 2403 c7 -3 16 -2 19 1 4 3 -2 6 -13 5 -11 0 -14 -3 -6 -6z"/>
<path d="M2487 2403 c-4 -3 -7 -11 -7 -17 0 -7 3 -7 8 0 4 7 16 14 27 17 19 5
19 5 -1 6 -11 0 -24 -2 -27 -6z"/>
<path d="M2551 2392 c0 -10 3 -12 6 -4 11 28 33 12 34 -25 l1 -38 7 31 c4 17
10 35 13 40 4 5 -9 10 -28 11 -27 2 -34 -1 -33 -15z"/>
<path d="M2640 2367 c4 -41 5 -41 8 -8 2 18 0 37 -5 42 -5 5 -6 -11 -3 -34z"/>
<path d="M3020 2396 c0 -8 4 -17 9 -20 5 -4 7 3 4 14 -6 23 -13 26 -13 6z"/>
<path d="M3080 2396 c0 -8 -5 -16 -12 -18 -7 -3 -6 -7 5 -11 13 -5 17 -1 17
18 0 14 -2 25 -5 25 -3 0 -5 -6 -5 -14z"/>
<path d="M3349 2393 c-1 -10 -1 -23 0 -30 1 -6 -9 -19 -21 -27 -12 -9 -17 -16
-11 -16 21 0 43 31 43 61 0 31 -9 41 -11 12z"/>
<path d="M3502 2398 c-26 -26 -7 -79 28 -77 9 0 6 4 -7 9 -16 6 -23 18 -23 35
0 17 7 29 23 35 13 5 16 9 7 9 -9 1 -21 -4 -28 -11z"/>
<path d="M3561 2367 l2 -42 6 35 c4 22 12 36 24 38 14 3 17 -4 18 -35 l2 -38
6 35 c9 50 38 53 44 6 l4 -36 -1 37 -1 38 -52 2 -53 3 1 -43z"/>
<path d="M4207 2391 c3 -11 14 -21 26 -23 26 -4 34 -26 11 -35 -11 -4 -22 1
-32 13 -8 10 -12 13 -10 5 8 -28 36 -37 54 -19 14 14 15 20 5 32 -7 8 -9 21
-5 28 5 10 4 10 -6 1 -11 -10 -17 -10 -31 3 -16 15 -17 14 -12 -5z"/>
<path d="M4431 2388 c-10 -25 6 -59 30 -66 8 -2 6 2 -3 8 -27 17 -24 68 5 73
l22 4 -23 2 c-15 1 -26 -7 -31 -21z"/>
<path d="M4501 2387 c1 -17 2 -18 6 -4 5 20 24 22 41 5 9 -9 12 -9 12 1 0 8 7
11 20 8 11 -3 18 -2 15 2 -2 4 -25 8 -50 9 -40 0 -45 -2 -44 -21z"/>
<path d="M1276 2389 c3 -6 0 -17 -7 -25 -10 -12 -9 -18 5 -32 18 -18 46 -9 54
19 2 8 -2 5 -10 -5 -10 -12 -21 -17 -32 -13 -23 9 -16 30 12 37 21 5 21 5 -3
17 -14 6 -22 7 -19 2z"/>
<path d="M4320 2390 c0 -5 10 -10 23 -12 31 -4 29 -40 -3 -49 -22 -6 -23 -7
-4 -8 29 -1 51 26 38 46 -12 19 -54 37 -54 23z"/>
<path d="M1632 2360 c0 -19 2 -27 5 -17 2 9 2 25 0 35 -3 9 -5 1 -5 -18z"/>
<path d="M2043 2383 c11 -3 17 -14 17 -31 1 -24 2 -25 11 -9 13 22 -4 48 -30
46 -13 -1 -13 -2 2 -6z"/>
<path d="M2492 2334 c10 -10 20 -16 22 -13 3 3 -5 11 -17 18 -21 13 -21 12 -5
-5z"/>
<path d="M3050 2334 c-17 -9 -20 -14 -9 -14 9 0 22 7 29 15 15 18 13 18 -20
-1z"/>
<path d="M3110 2329 c0 -5 11 -9 25 -9 14 0 25 2 25 4 0 2 -11 6 -25 8 -14 3
-25 1 -25 -3z"/>
<path d="M1088 2323 c7 -3 16 -2 19 1 4 3 -2 6 -13 5 -11 0 -14 -3 -6 -6z"/>
<path d="M490 1905 l0 -65 38 1 c30 2 32 3 10 6 -27 4 -28 7 -28 64 0 33 -4
59 -10 59 -6 0 -10 -28 -10 -65z"/>
<path d="M1000 1945 c-10 -12 -10 -19 -2 -27 8 -8 7 -16 -1 -29 -9 -15 -8 -22
5 -35 21 -21 63 -2 53 24 -4 9 -8 22 -8 28 0 5 -10 10 -21 10 -12 -1 -21 5
-21 14 0 10 8 14 23 13 13 -2 21 1 17 7 -9 15 -31 12 -45 -5z m46 -66 c8 -14
-14 -29 -33 -22 -7 3 -13 11 -13 19 0 17 36 19 46 3z"/>
<path d="M1080 1945 c-18 -22 -8 -49 22 -55 29 -5 27 -19 -7 -38 -11 -6 -14
-12 -7 -12 20 0 52 38 52 64 0 24 -23 56 -39 56 -5 0 -14 -7 -21 -15z m40 -10
c15 -18 5 -35 -21 -35 -12 0 -19 7 -19 18 0 33 20 42 40 17z"/>
<path d="M1276 1951 c-3 -5 5 -8 18 -7 13 0 22 4 19 9 -6 10 -31 9 -37 -2z"/>
<path d="M2033 1953 c30 -5 30 -17 0 -75 -7 -16 -10 -28 -6 -28 11 1 53 97 45
104 -3 3 -19 5 -36 5 -31 -2 -31 -2 -3 -6z"/>
<path d="M2096 1952 c-3 -5 5 -8 17 -8 13 1 23 -6 25 -16 2 -12 -3 -18 -15
-18 -17 -1 -17 -1 0 -14 9 -7 17 -18 17 -24 0 -13 -29 -24 -43 -16 -7 4 -7 1
1 -7 9 -10 17 -11 30 -3 19 13 26 81 10 102 -12 14 -34 16 -42 4z"/>
<path d="M2303 1953 c31 -5 32 -8 11 -58 -8 -20 -13 -39 -11 -41 2 -3 13 18
25 45 11 27 18 52 14 55 -3 3 -19 5 -36 5 -30 -2 -30 -2 -3 -6z"/>
<path d="M2373 1948 c-16 -22 -14 -95 3 -102 24 -9 57 13 49 32 -4 9 -8 30 -9
47 -1 32 -26 45 -43 23z m37 -18 c0 -21 -24 -28 -35 -10 -8 14 3 30 21 30 8 0
14 -9 14 -20z m6 -51 c7 -12 -15 -31 -31 -26 -5 2 -11 11 -13 20 -4 19 32 24
44 6z"/>
<path d="M2990 1945 c-20 -24 -8 -49 28 -56 29 -6 32 -4 32 19 0 24 -1 25 -14
7 -8 -11 -19 -16 -30 -12 -25 10 -15 42 11 41 12 0 20 3 17 8 -8 13 -30 9 -44
-7z"/>
<path d="M3075 1950 c-4 -6 4 -9 17 -7 15 1 23 -3 23 -13 0 -9 -9 -15 -21 -14
-11 0 -21 -5 -22 -10 0 -6 -2 -19 -4 -30 -2 -10 5 -23 14 -29 26 -17 57 16 41
42 -8 13 -9 21 -1 29 8 8 8 15 -2 27 -14 17 -36 20 -45 5z m45 -74 c0 -8 -6
-16 -13 -19 -19 -7 -41 8 -33 22 10 16 46 14 46 -3z"/>
<path d="M3352 1948 c-7 -7 -12 -16 -12 -22 0 -5 7 -1 15 10 15 19 15 19 30 0
8 -11 15 -15 15 -10 0 11 -20 34 -30 34 -3 0 -11 -5 -18 -12z"/>
<path d="M3426 1951 c-4 -5 2 -7 13 -4 27 7 38 -17 16 -33 -16 -12 -17 -14 -2
-20 10 -3 17 -12 17 -19 0 -16 -28 -27 -43 -19 -9 5 -9 4 -1 -6 7 -7 21 -9 32
-5 36 11 23 115 -14 115 -7 0 -15 -4 -18 -9z"/>
<path d="M4203 1953 c23 -4 27 -8 22 -26 -5 -17 -4 -19 4 -7 19 28 12 40 -21
39 -31 -2 -32 -2 -5 -6z"/>
<path d="M4270 1949 c-12 -8 -10 -9 8 -4 26 7 42 -19 23 -38 -9 -9 -17 -8 -34
2 -20 13 -21 13 -8 -2 7 -10 22 -17 32 -17 25 0 24 -14 -3 -34 -20 -14 -20
-15 -3 -9 11 4 23 11 27 17 12 17 9 71 -4 84 -15 15 -19 15 -38 1z"/>
<path d="M1371 1928 c-13 -21 -13 -22 2 -9 15 12 17 11 17 -13 0 -28 -3 -29
-37 -20 -15 4 -23 14 -23 28 -1 19 -2 19 -11 4 -5 -10 -16 -18 -24 -18 -8 0
-19 8 -25 18 -11 16 -11 16 -6 -1 3 -10 6 -21 6 -23 0 -2 11 -4 25 -4 31 0 32
-12 3 -34 -23 -16 -23 -16 -1 -6 12 5 24 14 27 18 7 12 66 2 66 -12 0 -6 4 -4
9 4 9 16 3 90 -8 90 -3 0 -12 -10 -20 -22z"/>
<path d="M3270 1939 c0 -5 4 -8 9 -4 6 3 12 -16 14 -42 l3 -48 2 53 c2 40 -1
52 -13 52 -8 0 -15 -5 -15 -11z"/>
<path d="M1478 1929 c-25 -14 -24 -65 1 -79 30 -15 38 -12 13 6 -12 8 -22 23
-22 33 0 22 23 44 35 33 5 -4 5 -1 1 6 -8 14 -6 14 -28 1z"/>
<path d="M2494 1924 c-18 -15 -18 -15 2 -5 12 6 25 7 29 3 5 -4 5 -1 1 6 -9
15 -8 15 -32 -4z"/>
<path d="M2605 1933 c-17 -3 -20 -10 -17 -43 2 -22 8 -40 12 -40 5 0 7 10 5
21 -5 26 12 62 26 54 5 -4 9 -22 9 -41 0 -19 3 -34 8 -34 12 0 1 78 -11 82 -7
2 -21 2 -32 1z"/>
<path d="M3546 1924 c-9 -8 -16 -24 -16 -34 0 -21 25 -50 43 -50 6 0 1 7 -11
16 -26 18 -28 41 -5 66 20 22 11 24 -11 2z"/>
<path d="M4386 1924 c-23 -22 -20 -61 5 -75 14 -7 24 -8 31 -1 7 7 4 10 -7 9
-9 -1 -22 6 -29 16 -14 22 4 53 29 49 10 -2 14 1 10 7 -9 15 -21 14 -39 -5z"/>
<path d="M1532 1888 l1 -43 4 38 c3 28 9 37 23 37 14 0 20 -9 23 -37 l4 -38 1
38 c2 29 6 37 21 37 15 0 21 -8 24 -35 l4 -35 -1 37 -1 38 -52 3 -53 3 2 -43z"/>
<path d="M2550 1919 c0 -5 5 -7 10 -4 6 3 10 8 10 11 0 2 -4 4 -10 4 -5 0 -10
-5 -10 -11z"/>
<path d="M3601 1888 c2 -43 2 -43 8 -8 9 51 38 53 44 3 l4 -38 1 38 c2 29 6
37 21 37 15 0 21 -8 24 -35 l4 -35 -1 37 -1 38 -52 3 -53 3 1 -43z"/>
<path d="M4441 1888 c2 -35 3 -37 6 -13 3 17 9 36 15 43 8 9 6 12 -6 12 -12 0
-16 -9 -15 -42z"/>
<path d="M4489 1888 l6 -43 3 35 c2 19 9 38 15 42 8 5 4 8 -8 8 -18 0 -20 -5
-16 -42z"/>
<path d="M4540 1887 c4 -41 5 -41 8 -8 2 18 0 37 -5 42 -5 5 -6 -11 -3 -34z"/>
<path d="M4201 1873 c-10 -26 -10 -27 4 -9 8 11 15 23 15 28 0 15 -7 8 -19
-19z"/>
<path d="M1188 1883 c6 -2 18 -2 25 0 6 3 1 5 -13 5 -14 0 -19 -2 -12 -5z"/>
<path d="M2208 1883 c7 -3 16 -2 19 1 4 3 -2 6 -13 5 -11 0 -14 -3 -6 -6z"/>
<path d="M3188 1883 c7 -3 16 -2 19 1 4 3 -2 6 -13 5 -11 0 -14 -3 -6 -6z"/>
<path d="M3341 1874 c-1 -6 6 -17 14 -24 12 -10 18 -10 30 0 8 7 15 18 14 24
0 7 -2 6 -6 -1 -2 -7 -13 -13 -23 -13 -10 0 -21 6 -23 13 -4 7 -6 8 -6 1z"/>
<path d="M2492 1855 c15 -16 20 -17 30 -6 11 11 10 13 0 7 -7 -4 -21 -2 -30 5
-15 12 -15 11 0 -6z"/>
<path d="M3020 1861 c-8 -6 -18 -7 -22 -5 -4 3 -8 0 -8 -5 0 -15 13 -14 36 4
21 16 17 20 -6 6z"/>
<path d="M430 1482 c0 -7 7 -23 16 -37 14 -22 14 -26 -1 -49 -9 -14 -15 -31
-12 -38 3 -8 10 -2 17 15 16 34 23 34 45 1 23 -36 31 -22 9 15 -18 30 -18 32
0 62 23 38 14 50 -10 14 l-18 -27 -23 28 c-13 16 -23 23 -23 16z"/>
<path d="M540 1415 l0 -65 35 0 c19 0 35 5 35 10 0 6 -11 10 -25 10 -24 0 -25
3 -25 55 0 30 -4 55 -10 55 -6 0 -10 -28 -10 -65z"/>
<path d="M957 1463 c-10 -9 -9 -41 2 -47 4 -3 6 6 3 21 -4 23 -2 25 21 21 15
-3 24 -1 21 3 -6 11 -38 12 -47 2z"/>
<path d="M1040 1461 c0 -4 11 -6 25 -3 14 2 25 6 25 8 0 2 -11 4 -25 4 -14 0
-25 -4 -25 -9z"/>
<path d="M1245 1460 c-3 -5 -2 -10 4 -10 5 0 12 -19 14 -42 3 -41 4 -41 5 10
2 48 -8 66 -23 42z"/>
<path d="M1317 1463 c-4 -3 -7 -11 -7 -17 0 -6 4 -5 9 3 16 25 41 4 41 -34 0
-38 -25 -59 -41 -34 -6 10 -9 11 -9 1 0 -19 28 -26 45 -12 15 13 20 56 9 84
-6 16 -35 22 -47 9z"/>
<path d="M1405 1460 c-3 -5 -2 -10 4 -10 5 0 12 -19 14 -42 3 -41 4 -41 5 10
2 48 -8 66 -23 42z"/>
<path d="M2033 1463 c32 -5 32 -5 11 -44 -8 -17 -14 -35 -12 -41 2 -6 14 12
25 40 l22 52 -37 -1 c-30 -2 -32 -3 -9 -6z"/>
<path d="M2091 1451 c-8 -15 -7 -23 5 -35 8 -9 18 -16 22 -16 3 0 1 5 -6 12
-19 19 -15 48 7 48 16 0 20 -7 19 -41 0 -32 -5 -42 -22 -49 -15 -6 -16 -9 -5
-9 26 -1 41 24 37 66 -2 30 -7 39 -25 41 -14 2 -26 -4 -32 -17z"/>
<path d="M2287 1463 c-2 -4 -4 -28 -3 -53 1 -38 4 -45 22 -48 25 -4 49 22 38
40 -4 7 -8 24 -8 38 -1 18 -7 26 -23 28 -11 2 -23 0 -26 -5z m43 -17 c0 -20
-19 -31 -32 -18 -6 6 -7 15 -4 21 10 16 36 13 36 -3z m3 -50 c7 -18 -1 -26
-25 -26 -18 0 -25 20 -11 33 11 12 31 8 36 -7z"/>
<path d="M2367 1463 c-18 -17 -5 -41 24 -47 37 -7 37 -37 -1 -47 -22 -6 -23
-7 -4 -8 45 -2 57 55 14 66 -27 7 -25 31 3 36 20 4 20 4 -4 6 -14 0 -29 -2
-32 -6z"/>
<path d="M2960 1460 c-10 -7 -11 -10 -2 -10 7 0 12 -15 12 -40 0 -22 4 -40 8
-40 8 0 9 86 1 94 -3 3 -11 1 -19 -4z"/>
<path d="M3032 1458 c-7 -7 -11 -26 -11 -42 2 -31 2 -31 8 4 4 26 11 35 26 35
17 0 20 -7 20 -40 0 -35 -3 -40 -22 -39 -12 0 -20 -3 -17 -8 8 -13 30 -9 44 7
18 21 68 20 72 -2 7 -34 14 19 8 61 l-5 38 -20 -23 c-15 -18 -15 -20 -2 -10
15 12 17 11 17 -13 0 -20 -5 -26 -21 -26 -13 0 -18 4 -13 13 5 8 2 8 -9 -2
-15 -12 -17 -11 -17 11 0 25 -16 48 -35 48 -6 0 -16 -5 -23 -12z"/>
<path d="M3315 1460 c-3 -5 -2 -10 4 -10 5 0 12 -19 14 -42 3 -41 4 -41 5 10
2 48 -8 66 -23 42z"/>
<path d="M3395 1460 c-3 -5 -2 -10 4 -10 5 0 12 -19 14 -42 3 -41 4 -41 5 10
2 48 -8 66 -23 42z"/>
<path d="M3467 1463 c-13 -12 -7 -81 8 -93 34 -28 68 27 46 76 -10 23 -40 32
-54 17z m45 -25 c6 -40 -3 -69 -21 -66 -16 3 -27 48 -17 74 8 22 34 16 38 -8z"/>
<path d="M4143 1463 c30 -5 33 -16 12 -53 -13 -23 -21 -59 -11 -49 2 2 14 28
25 57 l21 52 -38 -1 c-30 -2 -32 -3 -9 -6z"/>
<path d="M4207 1463 c-13 -12 -7 -40 11 -54 14 -11 15 -11 5 1 -7 8 -13 23
-13 33 0 15 5 18 25 15 13 -3 22 -1 19 3 -6 11 -38 12 -47 2z"/>
<path d="M4320 1453 c0 -12 3 -14 8 -7 4 7 16 14 27 17 15 4 14 5 -7 6 -21 1
-28 -4 -28 -16z"/>
<path d="M1512 1438 c-26 -26 -7 -79 28 -77 9 0 6 4 -7 9 -16 6 -23 18 -23 35
0 17 7 29 23 35 13 5 16 9 7 9 -9 1 -21 -4 -28 -11z"/>
<path d="M1571 1407 l2 -42 6 35 c4 22 12 35 21 35 9 0 17 -13 21 -35 l6 -35
4 35 c2 23 9 35 19 35 9 0 17 -13 21 -35 l6 -35 2 32 c1 38 -10 46 -66 50
l-43 2 1 -42z"/>
<path d="M2490 1440 c-24 -15 -7 -18 20 -3 14 7 18 13 10 13 -8 0 -22 -4 -30
-10z"/>
<path d="M2551 1432 c0 -10 3 -12 6 -4 11 27 33 12 33 -24 0 -21 4 -33 10 -29
6 4 8 11 5 16 -10 15 5 49 20 49 9 0 15 -14 18 -37 l4 -38 -1 40 -1 40 -47 2
c-40 2 -48 -1 -47 -15z"/>
<path d="M3582 1438 c-26 -26 -7 -79 28 -77 9 0 6 4 -7 9 -16 6 -23 18 -23 35
0 17 7 29 23 35 13 5 16 9 7 9 -9 1 -21 -4 -28 -11z"/>
<path d="M3646 1443 c-3 -4 -5 -22 -5 -42 l2 -36 6 35 c4 22 12 36 24 38 14 3
17 -4 18 -35 l2 -38 6 35 c4 22 12 35 21 35 9 0 18 -13 22 -35 l6 -35 -1 40
-2 40 -46 2 c-26 1 -49 -1 -53 -4z"/>
<path d="M4444 1442 c-32 -22 -18 -82 18 -81 l23 0 -22 9 c-16 6 -23 18 -23
35 0 17 7 29 23 35 12 5 15 9 7 9 -8 0 -20 -3 -26 -7z"/>
<path d="M4500 1433 c0 -15 2 -16 10 -3 8 12 13 13 30 2 11 -7 20 -8 20 -3 0
10 -24 21 -46 21 -8 0 -14 -8 -14 -17z"/>
<path d="M4570 1446 c0 -2 7 -7 16 -10 8 -3 12 -2 9 4 -6 10 -25 14 -25 6z"/>
<path d="M4252 1425 c-11 -12 -10 -15 3 -15 8 0 15 7 15 15 0 18 -2 18 -18 0z"/>
<path d="M1000 1420 c-13 -8 -12 -10 3 -10 9 0 17 5 17 10 0 12 -1 12 -20 0z"/>
<path d="M1060 1422 c15 -5 25 -15 25 -27 0 -12 -9 -22 -25 -26 -22 -6 -23 -7
-4 -8 52 -2 55 62 3 66 -24 2 -24 2 1 -5z"/>
<path d="M1301 1414 c0 -11 3 -14 6 -6 3 7 2 16 -1 19 -3 4 -6 -2 -5 -13z"/>
<path d="M4340 1422 c15 -5 25 -15 25 -27 0 -12 -9 -22 -25 -26 -22 -6 -23 -7
-4 -8 52 -2 55 62 3 66 -24 2 -24 2 1 -5z"/>
<path d="M980 1374 c-17 -9 -20 -14 -9 -14 9 0 22 7 29 15 15 18 13 18 -20 -1z"/>
<path d="M2483 1380 c2 -8 14 -16 28 -17 19 -1 20 -1 4 4 -11 3 -24 10 -28 17
-6 7 -7 6 -4 -4z"/>
<path d="M4230 1374 c-17 -9 -20 -14 -9 -14 9 0 22 7 29 15 15 18 13 18 -20
-1z"/>
<path d="M388 950 c16 -27 16 -31 -1 -60 -21 -35 -7 -41 16 -7 l16 22 16 -22
c21 -29 56 -29 74 -1 l14 22 19 -23 c24 -31 36 -19 14 14 -15 23 -15 28 -1 55
9 17 11 30 6 30 -6 0 -16 -10 -22 -22 l-12 -22 -15 22 c-22 33 -36 27 -16 -7
16 -28 16 -31 0 -55 -21 -33 -32 -33 -50 3 -13 25 -13 31 -1 47 17 22 19 34 6
34 -5 0 -13 -10 -17 -22 l-7 -22 -17 22 c-26 32 -42 27 -22 -8z"/>
<path d="M590 920 l0 -60 38 1 c30 2 32 3 10 6 -27 4 -28 7 -28 59 0 30 -4 54
-10 54 -6 0 -10 -27 -10 -60z"/>
<path d="M930 960 c-9 -6 -10 -10 -3 -10 7 0 14 -19 16 -42 3 -41 4 -41 5 10
1 28 1 52 0 52 -2 0 -10 -5 -18 -10z"/>
<path d="M1001 956 c-28 -34 9 -120 39 -90 8 8 4 10 -12 10 -19 -1 -24 5 -26
32 -2 18 2 40 9 48 6 8 9 14 6 14 -2 0 -10 -6 -16 -14z"/>
<path d="M1037 960 c6 -8 13 -28 16 -45 l4 -30 2 31 c0 20 -6 37 -16 45 -16
12 -16 12 -6 -1z"/>
<path d="M1117 950 c3 -12 -2 -30 -13 -43 l-19 -22 23 19 c22 19 29 50 13 60
-5 4 -7 -3 -4 -14z"/>
<path d="M1285 960 c-3 -5 1 -10 10 -10 9 0 13 5 10 10 -3 6 -8 10 -10 10 -2
0 -7 -4 -10 -10z"/>
<path d="M1350 949 c-6 -11 -10 -27 -8 -35 2 -8 8 1 14 20 12 40 10 46 -6 15z"/>
<path d="M1388 960 c18 -21 15 -77 -5 -89 -10 -6 -13 -11 -7 -11 34 -1 48 77
17 101 -15 11 -16 11 -5 -1z"/>
<path d="M1432 958 c-15 -15 -15 -35 0 -44 8 -5 9 -2 5 11 -4 9 -2 24 4 31 14
17 7 18 -9 2z"/>
<path d="M1466 959 c19 -23 14 -68 -9 -84 -12 -8 -17 -15 -11 -15 6 0 18 6 28
13 22 16 19 88 -4 95 -12 4 -13 2 -4 -9z"/>
<path d="M2014 955 c-3 -8 -3 -19 1 -24 3 -6 1 -19 -4 -30 -13 -23 8 -45 36
-39 14 2 18 14 19 51 1 26 -1 49 -5 52 -4 2 -7 -6 -7 -18 1 -13 -5 -22 -14
-22 -9 0 -15 9 -14 23 1 25 -4 29 -12 7z m46 -65 c0 -13 -7 -20 -20 -20 -13 0
-20 7 -20 20 0 13 7 20 20 20 13 0 20 -7 20 -20z"/>
<path d="M2102 958 c-26 -26 -9 -99 23 -98 5 0 3 5 -6 10 -11 6 -17 23 -17 45
0 22 6 39 17 45 9 5 11 10 6 10 -6 0 -16 -5 -23 -12z"/>
<path d="M2287 963 c-9 -9 -9 -41 1 -46 4 -3 7 8 7 24 0 16 0 29 -1 29 0 0 -4
-3 -7 -7z"/>
<path d="M2328 953 c8 -13 8 -24 2 -28 -5 -3 -6 -13 -3 -22 4 -9 -1 -21 -12
-29 -10 -8 -14 -14 -7 -14 16 0 42 41 42 66 0 12 -7 28 -17 35 -15 13 -15 12
-5 -8z"/>
<path d="M2385 943 l-18 -28 21 19 c22 19 22 19 22 -9 0 -24 -3 -27 -25 -23
-14 3 -25 1 -25 -3 0 -5 11 -9 25 -9 14 0 25 -6 25 -12 0 -10 2 -10 8 -1 9 15
3 93 -8 93 -4 0 -16 -12 -25 -27z"/>
<path d="M2993 920 c0 -30 2 -43 4 -27 2 15 2 39 0 55 -2 15 -4 2 -4 -28z"/>
<path d="M3068 963 c-2 -5 -1 -28 3 -53 l6 -45 1 53 c2 48 -2 63 -10 45z"/>
<path d="M3153 920 c0 -30 2 -43 4 -27 2 15 2 39 0 55 -2 15 -4 2 -4 -28z"/>
<path d="M3335 960 c-3 -5 -1 -10 4 -10 6 0 11 5 11 10 0 6 -2 10 -4 10 -3 0
-8 -4 -11 -10z"/>
<path d="M3415 960 c-3 -5 -1 -10 4 -10 6 0 11 5 11 10 0 6 -2 10 -4 10 -3 0
-8 -4 -11 -10z"/>
<path d="M3523 964 c3 -3 -3 -26 -13 -50 -21 -49 -19 -60 3 -16 24 46 30 72
16 72 -7 0 -10 -3 -6 -6z"/>
<path d="M4185 960 c-3 -6 -4 -18 -1 -28 3 -9 1 -24 -4 -32 -11 -18 5 -40 29
-39 11 0 9 3 -6 9 -27 11 -21 40 7 40 21 0 37 37 23 51 -6 6 -9 1 -9 -13 1
-14 -5 -23 -14 -23 -9 0 -15 9 -14 23 1 24 -2 27 -11 12z"/>
<path d="M4265 959 c-4 -6 -5 -12 -2 -15 2 -3 7 2 10 11 7 17 1 20 -8 4z"/>
<path d="M4312 923 c-1 -28 -8 -45 -19 -52 -10 -6 -13 -11 -7 -11 22 0 35 29
31 67 l-4 38 -1 -42z"/>
<path d="M1552 938 c-26 -26 -7 -79 28 -77 9 0 6 4 -7 9 -16 6 -23 18 -23 35
0 17 7 29 23 35 13 5 16 9 7 9 -9 1 -21 -4 -28 -11z"/>
<path d="M1614 936 c-3 -8 -4 -27 -1 -43 3 -23 4 -21 6 10 1 31 4 38 19 35 11
-2 19 -16 23 -38 l6 -35 2 36 c1 25 -4 39 -15 43 -24 9 -34 7 -40 -8z"/>
<path d="M1693 939 c10 -6 17 -23 18 -42 1 -18 3 -24 6 -14 8 30 -6 67 -25 67
-16 -1 -16 -1 1 -11z"/>
<path d="M2508 943 c7 -3 16 -2 19 1 4 3 -2 6 -13 5 -11 0 -14 -3 -6 -6z"/>
<path d="M2554 938 c-3 -5 -3 -12 0 -15 3 -4 6 -1 6 5 0 7 7 12 15 12 11 0 15
-11 16 -37 1 -39 3 -38 13 10 9 39 34 34 39 -8 l4 -35 -1 37 c-1 38 -2 38 -43
40 -24 0 -46 -3 -49 -9z"/>
<path d="M3588 943 c7 -3 16 -2 19 1 4 3 -2 6 -13 5 -11 0 -14 -3 -6 -6z"/>
<path d="M3630 932 c0 -11 3 -13 8 -6 4 6 23 11 42 11 19 0 39 -5 43 -11 6 -7
7 -6 4 4 -2 10 -19 16 -50 17 -38 2 -47 -1 -47 -15z"/>
<path d="M4382 938 c-26 -26 -7 -79 28 -77 9 0 6 4 -7 9 -16 6 -23 18 -23 35
0 17 7 29 23 35 13 5 16 9 7 9 -9 1 -21 -4 -28 -11z"/>
<path d="M4441 905 l2 -40 6 35 c4 22 12 36 24 38 14 3 17 -4 18 -35 l2 -38 6
34 c4 21 13 37 26 41 12 5 0 7 -32 7 l-53 -1 1 -41z"/>
<path d="M3556 924 c-3 -9 -6 -19 -6 -24 0 -11 29 -40 41 -40 5 0 0 9 -10 19
-12 12 -17 27 -14 40 6 25 -2 28 -11 5z"/>
<path d="M4542 900 c0 -19 2 -27 5 -17 2 9 2 25 0 35 -3 9 -5 1 -5 -18z"/>
<path d="M2143 894 c0 -17 2 -22 7 -13 5 6 6 18 3 26 -8 19 -10 16 -10 -13z"/>
<path d="M4231 884 c0 -11 3 -14 6 -6 3 7 2 16 -1 19 -3 4 -6 -2 -5 -13z"/>
<path d="M1074 869 c-3 -5 9 -9 25 -9 17 0 31 2 31 4 0 8 -51 13 -56 5z"/>
<path d="M320 495 c0 -3 7 -17 16 -30 15 -23 15 -27 -5 -60 -14 -25 -17 -35
-7 -35 7 0 18 12 25 27 l13 28 20 -28 c24 -33 50 -35 72 -4 l15 22 20 -22 c26
-31 53 -29 73 4 l16 27 13 -27 c7 -15 19 -27 26 -27 11 0 10 8 -7 35 -20 32
-20 35 -4 60 22 33 10 45 -14 15 l-19 -24 -12 22 c-15 29 -54 28 -75 0 -9 -13
-19 -18 -22 -13 -12 26 -23 39 -29 33 -4 -3 1 -18 10 -32 16 -23 16 -27 -1
-56 -23 -38 -30 -38 -49 1 -15 28 -15 33 0 56 22 32 11 43 -13 13 l-19 -24
-12 22 c-10 20 -31 31 -31 17z m229 -36 c12 -22 12 -28 -4 -53 l-19 -28 -18
22 c-21 26 -23 43 -6 70 16 24 29 21 47 -11z"/>
<path d="M650 437 l0 -67 36 0 c21 0 33 4 29 10 -4 6 -14 9 -23 8 -14 -2 -18
7 -20 47 -5 78 -22 80 -22 2z"/>
<path d="M924 478 c-4 -6 -3 -8 4 -4 7 4 12 -10 15 -41 l3 -48 2 53 c2 49 -8
66 -24 40z"/>
<path d="M1006 482 c-3 -5 1 -9 9 -9 8 0 15 4 15 9 0 4 -4 8 -9 8 -6 0 -12 -4
-15 -8z"/>
<path d="M1118 478 c16 -16 15 -63 -2 -77 -17 -15 -33 3 -39 44 l-4 30 -2 -32
c-1 -41 23 -67 50 -53 28 15 25 100 -4 100 -7 0 -7 -4 1 -12z"/>
<path d="M1378 443 c7 -66 14 -69 11 -5 -2 28 -6 52 -10 52 -3 0 -4 -21 -1
-47z"/>
<path d="M1433 461 c3 -15 1 -33 -6 -40 -8 -8 -8 -14 2 -23 11 -11 12 -10 7 0
-10 17 12 42 30 35 19 -7 18 -30 -3 -42 -10 -6 -13 -10 -8 -11 23 0 32 17 32
58 0 23 -3 45 -7 47 -4 3 -7 -3 -6 -12 0 -10 -8 -19 -18 -21 -15 -3 -18 0 -13
17 3 12 0 21 -5 21 -6 0 -8 -12 -5 -29z"/>
<path d="M2018 452 c3 -32 0 -42 -19 -56 -13 -9 -19 -16 -13 -16 35 0 63 64
41 94 -11 15 -12 12 -9 -22z"/>
<path d="M2066 458 c-27 -35 -26 -48 5 -48 10 0 19 -4 19 -10 0 -5 5 -10 10
-10 13 0 13 87 1 95 -5 3 -21 -9 -35 -27z m30 -10 c-1 -13 -10 -24 -19 -26
-20 -4 -21 2 -5 28 17 27 29 25 24 -2z"/>
<path d="M2254 478 c-4 -6 -3 -8 4 -4 7 4 12 -10 15 -41 l3 -48 2 53 c2 49 -8
66 -24 40z"/>
<path d="M2327 483 c-13 -12 -7 -80 7 -92 23 -19 56 4 56 39 0 36 -9 60 -23
60 -7 0 -7 -4 1 -12 17 -17 15 -63 -4 -79 -13 -10 -17 -10 -25 2 -13 20 -11
63 3 77 7 7 8 12 2 12 -6 0 -14 -3 -17 -7z"/>
<path d="M2425 463 l-18 -28 21 19 c22 19 22 19 22 -9 0 -24 -3 -27 -25 -23
-14 3 -25 1 -25 -3 0 -5 11 -9 25 -9 14 0 25 -6 25 -12 0 -10 2 -10 8 -1 9 15
3 93 -8 93 -4 0 -16 -12 -25 -27z"/>
<path d="M2954 478 c-4 -7 -3 -8 4 -4 9 5 12 -6 12 -38 0 -27 5 -46 11 -46 7
0 9 15 5 43 -3 23 -5 45 -5 50 -1 11 -19 8 -27 -5z"/>
<path d="M3045 480 c3 -5 8 -10 11 -10 2 0 4 5 4 10 0 6 -5 10 -11 10 -5 0 -7
-4 -4 -10z"/>
<path d="M3153 474 c2 -13 -4 -19 -19 -18 -27 1 -21 -22 8 -29 15 -4 19 -11
14 -24 -6 -15 -5 -16 6 -5 10 10 10 17 1 31 -9 14 -9 21 0 30 8 8 8 14 0 22
-8 8 -11 6 -10 -7z"/>
<path d="M3314 478 c-4 -6 -3 -8 4 -4 7 4 12 -10 15 -41 l3 -48 2 53 c2 49 -8
66 -24 40z"/>
<path d="M3425 465 c0 -13 3 -21 8 -18 4 2 7 10 7 18 0 8 -3 16 -7 18 -5 3 -8
-5 -8 -18z"/>
<path d="M3460 465 c0 -20 5 -25 25 -25 30 0 35 -33 8 -49 -10 -6 -13 -11 -6
-11 13 0 43 27 43 39 0 14 -24 31 -43 31 -14 0 -18 5 -14 20 3 11 1 20 -4 20
-5 0 -9 -11 -9 -25z"/>
<path d="M4129 488 c-1 -2 -3 -23 -4 -48 -3 -42 6 -60 30 -60 6 1 2 5 -7 11
-26 15 -23 41 5 37 14 -2 21 -9 20 -22 -1 -13 2 -15 10 -7 8 8 8 14 0 22 -7 7
-11 24 -9 38 2 14 1 18 -1 8 -6 -23 -39 -18 -37 6 2 14 -3 23 -7 15z"/>
<path d="M4248 480 c16 -18 16 -65 -1 -78 -19 -16 -35 -1 -40 38 l-4 35 -1
-37 c-2 -28 3 -40 17 -48 42 -22 72 61 34 91 -15 11 -16 11 -5 -1z"/>
<path d="M1544 445 c-4 -14 -4 -29 0 -32 3 -4 6 3 6 13 0 11 5 25 12 32 9 9 9
12 0 12 -6 0 -14 -11 -18 -25z"/>
<path d="M1610 430 c0 -22 2 -40 4 -40 2 0 6 18 8 40 2 22 0 40 -4 40 -5 0 -8
-18 -8 -40z"/>
<path d="M1647 462 c6 -4 13 -23 15 -42 l3 -35 5 41 c5 35 2 40 -15 42 -11 0
-15 -2 -8 -6z"/>
<path d="M1697 463 c6 -4 13 -24 16 -43 4 -34 4 -33 3 4 -1 26 -6 41 -16 43
-10 3 -11 2 -3 -4z"/>
<path d="M2590 453 c0 -10 -3 -28 -6 -40 -4 -13 -2 -23 4 -23 5 0 12 18 14 40
2 22 0 40 -4 40 -5 0 -8 -8 -8 -17z"/>
<path d="M2628 429 c5 -50 19 -50 24 -1 2 29 -1 38 -12 39 -12 1 -15 -7 -12
-38z"/>
<path d="M2678 430 c2 -22 8 -40 13 -40 10 0 12 40 3 64 -11 29 -20 16 -16
-24z"/>
<path d="M3580 456 c-14 -18 -10 -58 8 -64 11 -3 11 -1 0 17 -10 17 -10 25 0
41 14 23 10 27 -8 6z"/>
<path d="M3642 428 c1 -41 1 -41 5 -8 3 19 10 38 16 42 8 5 6 8 -5 8 -15 0
-18 -8 -16 -42z"/>
<path d="M3688 430 c2 -22 5 -40 7 -40 2 0 5 18 7 40 2 24 -1 40 -7 40 -6 0
-9 -16 -7 -40z"/>
<path d="M3740 427 c4 -41 5 -41 8 -8 2 18 0 37 -5 42 -5 5 -6 -11 -3 -34z"/>
<path d="M4430 449 c-9 -16 -8 -26 5 -45 8 -13 21 -24 28 -24 6 0 4 5 -5 11
-21 12 -24 65 -5 72 9 4 9 6 0 6 -7 1 -17 -8 -23 -20z"/>
<path d="M4500 455 c0 -8 2 -15 4 -15 2 0 6 7 10 15 3 8 1 15 -4 15 -6 0 -10
-7 -10 -15z"/>
<path d="M4530 466 c0 -2 6 -9 14 -15 10 -9 15 -8 19 2 3 8 -3 13 -14 14 -10
1 -19 0 -19 -1z"/>
<path d="M4585 460 c3 -5 8 -10 11 -10 2 0 4 5 4 10 0 6 -5 10 -11 10 -5 0 -7
-4 -4 -10z"/>
<path d="M4320 450 c0 -6 9 -10 19 -10 31 0 37 -21 11 -42 -26 -21 -13 -25 16
-4 15 12 17 19 9 32 -13 20 -55 38 -55 24z"/>
<path d="M1978 438 c5 -5 16 -8 23 -6 8 3 3 7 -10 11 -17 4 -21 3 -13 -5z"/>
<path d="M1022 415 c0 -16 2 -22 5 -12 2 9 2 23 0 30 -3 6 -5 -1 -5 -18z"/>
<path d="M2168 423 c7 -3 16 -2 19 1 4 3 -2 6 -13 5 -11 0 -14 -3 -6 -6z"/>
<path d="M3228 423 c7 -3 16 -2 19 1 4 3 -2 6 -13 5 -11 0 -14 -3 -6 -6z"/>
<path d="M3397 412 c-23 -25 -21 -32 6 -32 17 0 19 2 8 9 -12 8 -12 12 -2 25
19 22 8 20 -12 -2z"/>
<path d="M3100 411 c0 -6 4 -13 10 -16 6 -3 7 1 4 9 -7 18 -14 21 -14 7z"/>
<path d="M1550 396 c0 -2 7 -7 16 -10 8 -3 12 -2 9 4 -6 10 -25 14 -25 6z"/>
</g>
</svg>
